<?xml version="1.0" encoding="UTF-8"?>
<svg id="Speech_Bubble" xmlns="http://www.w3.org/2000/svg" viewBox="0 0 500 500">
  <defs>
    <style>
      .cls-1 {
        opacity: .6;
      }

      .cls-2 {
        fill: #fafafa;
      }

      .cls-3 {
        fill: #263238;
      }

      .cls-4 {
        opacity: .3;
      }

      .cls-5 {
        fill: #eb996e;
      }

      .cls-6 {
        fill: #fff;
      }

      .cls-7 {
        fill: #e0e0e0;
      }

      .cls-8 {
        fill: #455a64;
      }

      .cls-9 {
        fill: #ffbe9d;
      }

      .cls-10 {
        fill: #ebebeb;
      }

      .cls-11 {
        fill: #f5f5f5;
      }

      .cls-12 {
        fill: #4caf4f;
      }
    </style>
  </defs>
  <g>
    <g>
      <path class="cls-11" d="M392.25,268.44l-72.72-27.5c-5.03-1.9-7.56-7.52-5.66-12.54l38.07-100.66c1.9-5.03,7.52-7.56,12.54-5.66l46.12,17.44,21.79,50.3-27.59,72.96c-1.9,5.03-7.52,7.56-12.54,5.66Z"/>
      <path class="cls-10" d="M410.6,139.52l-10.71,28.33c-1.77,4.67.59,9.9,5.26,11.66l27.24,10.31-21.79-50.3Z"/>
      <path class="cls-7" d="M399.31,170.48s-2.96,6.74,4.01,11.95c.26.2.54.37.82.54,3.32,1.98,25.16,15,25.36,14.46.22-.58,2.88-7.61,2.88-7.61l-27.24-10.3s-6.71-2.8-5.83-9.04Z"/>
    </g>
    <path class="cls-7" d="M394.22,164.39c-.14.36-7.78-2.19-17.07-5.7-9.29-3.51-16.71-6.66-16.57-7.02.14-.36,7.78,2.19,17.07,5.7,9.29,3.51,16.71,6.66,16.57,7.02Z"/>
    <path class="cls-7" d="M409.89,188.63c-.14.36-12.65-4.03-27.94-9.81-15.29-5.78-27.58-10.77-27.44-11.13.14-.36,12.64,4.03,27.94,9.81,15.29,5.78,27.57,10.77,27.44,11.13Z"/>
    <path class="cls-7" d="M409.82,203.89c-.14.36-13.76-4.45-30.43-10.75-16.67-6.31-30.07-11.71-29.93-12.07.14-.36,13.76,4.45,30.43,10.76,16.67,6.3,30.07,11.71,29.93,12.07Z"/>
    <path class="cls-7" d="M405.05,216.51c-.14.36-13.76-4.45-30.43-10.75-16.67-6.3-30.07-11.71-29.93-12.07.14-.36,13.76,4.45,30.43,10.76,16.67,6.3,30.07,11.71,29.93,12.07Z"/>
    <path class="cls-7" d="M400.28,229.13c-.14.36-13.76-4.45-30.43-10.75-16.67-6.31-30.07-11.71-29.93-12.07.14-.36,13.76,4.45,30.43,10.76,16.67,6.3,30.07,11.71,29.93,12.07Z"/>
    <path class="cls-7" d="M395.5,241.75c-.14.36-13.76-4.45-30.43-10.75-16.67-6.3-30.07-11.71-29.93-12.07.14-.36,13.76,4.45,30.43,10.76,16.67,6.3,30.07,11.71,29.93,12.07Z"/>
  </g>
  <g>
    <g>
      <rect class="cls-10" x="70.82" y="176.28" width="114.31" height="158.27" rx="6.36" ry="6.36" transform="translate(-77.22 56.65) rotate(-19.3)"/>
      <g>
        <g>
          <rect class="cls-7" x="79.32" y="184.67" width="98.27" height="144.26" transform="translate(-77.65 56.88) rotate(-19.3)"/>
          <g>
            <rect class="cls-2" x="77.21" y="184.1" width="98.27" height="141.51" transform="translate(-77.13 56.08) rotate(-19.3)"/>
            <path class="cls-7" d="M196.09,305.39c-.39-1.12-19.22-54.73-46.89-133.51l.17.08c-28.13,9.85-59.6,20.88-92.73,32.48h-.01s.09-.18.09-.18c17.48,50.17,33.75,96.5,46.74,133.56l-.15-.07c56.41-19.68,91.87-32.05,92.78-32.37-.91.32-36.34,12.77-92.7,32.59l-.11.04-.04-.11c-12.99-37.07-29.22-83.4-46.79-133.55l-.05-.14.14-.05h.01c33.13-11.6,64.61-22.62,92.74-32.46l.13-.04.04.13c27.52,78.83,46.25,132.48,46.64,133.6Z"/>
          </g>
          <path class="cls-7" d="M163.2,316.91s20.65-17.42,24.23-35.56c0,0-5.73,8.99-17.66,10.63,0,0-.41,19.05-6.58,24.93Z"/>
          <g>
            <rect class="cls-10" x="81.82" y="234.59" width="12.01" height="12.01" rx="3.42" ry="3.42" transform="translate(-74.58 42.55) rotate(-19.3)"/>
            <path class="cls-6" d="M87.69,242.48s0,0,0,0c-.07.02-.16.01-.22-.02l-2.24-1.3c-.13-.08-.18-.25-.1-.38.08-.13.25-.18.38-.1l1.97,1.14,2.36-5.05c.07-.14.23-.2.37-.13.14.07.2.23.13.37l-2.49,5.33c-.03.07-.09.12-.16.15Z"/>
            <path class="cls-7" d="M151.73,213.4c.03.08-12.02,4.36-26.9,9.57-14.89,5.21-26.97,9.38-27,9.3-.03-.08,12.02-4.36,26.9-9.57,14.88-5.21,26.97-9.37,26.99-9.3Z"/>
            <path class="cls-7" d="M123.45,232.62s-.3.15-.87.37c-.62.23-1.43.53-2.42.9-2.05.74-4.88,1.75-8.01,2.85-3.14,1.1-5.98,2.08-8.04,2.77-1,.33-1.82.6-2.45.81-.58.18-.9.28-.91.26,0-.02.3-.15.87-.37.62-.23,1.43-.53,2.42-.9,2.05-.74,4.88-1.75,8.02-2.85,3.13-1.1,5.98-2.08,8.04-2.77,1-.33,1.82-.6,2.45-.81.58-.18.9-.28.91-.26Z"/>
            <path class="cls-7" d="M153.02,217.08c.03.08-12.02,4.36-26.9,9.57-14.89,5.21-26.97,9.38-27,9.3-.03-.08,12.02-4.36,26.9-9.57,14.88-5.21,26.97-9.37,26.99-9.3Z"/>
          </g>
          <g>
            <rect class="cls-10" x="88.79" y="254.49" width="12.01" height="12.01" rx="3.42" ry="3.42" transform="translate(-80.77 45.97) rotate(-19.3)"/>
            <path class="cls-6" d="M94.66,262.38s0,0,0,0c-.07.02-.16.01-.22-.02l-2.24-1.3c-.13-.08-.18-.25-.1-.38.08-.13.25-.18.38-.1l1.97,1.14,2.36-5.05c.07-.14.23-.2.37-.13.14.07.2.23.13.37l-2.49,5.33c-.03.07-.09.12-.16.15Z"/>
            <path class="cls-7" d="M158.7,233.3c.03.08-12.02,4.36-26.9,9.57-14.89,5.21-26.97,9.38-27,9.3-.03-.08,12.02-4.36,26.9-9.57,14.88-5.21,26.97-9.37,26.99-9.3Z"/>
            <path class="cls-7" d="M130.42,252.52s-.3.15-.87.37c-.62.23-1.43.53-2.42.9-2.05.74-4.88,1.75-8.01,2.85-3.14,1.1-5.98,2.08-8.04,2.77-1,.33-1.82.6-2.45.81-.58.18-.9.28-.91.26,0-.02.3-.15.87-.37.62-.23,1.43-.53,2.42-.9,2.05-.74,4.88-1.75,8.02-2.85,3.13-1.1,5.98-2.08,8.04-2.77,1-.33,1.82-.6,2.45-.81.58-.18.9-.28.91-.26Z"/>
            <path class="cls-7" d="M159.99,236.98c.03.08-12.02,4.36-26.9,9.57-14.89,5.21-26.97,9.38-27,9.3-.03-.08,12.02-4.36,26.9-9.57,14.88-5.21,26.97-9.37,26.99-9.3Z"/>
          </g>
          <g>
            <rect class="cls-10" x="95.76" y="274.39" width="12.01" height="12.01" rx="3.42" ry="3.42" transform="translate(-86.95 49.39) rotate(-19.3)"/>
            <path class="cls-6" d="M101.63,282.28s0,0,0,0c-.07.02-.16.01-.22-.02l-2.24-1.3c-.13-.08-.18-.25-.1-.38.08-.13.25-.18.38-.1l1.97,1.14,2.36-5.05c.07-.14.23-.2.37-.13.14.07.2.23.13.37l-2.49,5.33c-.03.07-.09.12-.16.15Z"/>
            <path class="cls-7" d="M165.67,253.2c.03.08-12.02,4.36-26.9,9.57-14.89,5.21-26.97,9.38-27,9.3-.03-.08,12.02-4.36,26.9-9.57,14.88-5.21,26.97-9.37,26.99-9.3Z"/>
            <path class="cls-7" d="M137.39,272.41s-.3.15-.87.37c-.62.23-1.43.53-2.42.9-2.05.74-4.88,1.75-8.01,2.85-3.14,1.1-5.98,2.08-8.04,2.77-1,.33-1.82.6-2.45.81-.58.18-.9.28-.91.26,0-.02.3-.15.87-.37.62-.23,1.43-.53,2.42-.9,2.05-.74,4.88-1.75,8.02-2.85,3.13-1.1,5.98-2.08,8.04-2.77,1-.33,1.82-.6,2.45-.81.58-.18.9-.28.91-.26Z"/>
            <path class="cls-7" d="M166.96,256.88c.03.08-12.02,4.36-26.9,9.57-14.89,5.21-26.97,9.38-27,9.3-.03-.08,12.02-4.36,26.9-9.57,14.88-5.21,26.97-9.37,26.99-9.3Z"/>
          </g>
          <g>
            <rect class="cls-10" x="102.73" y="294.29" width="12.01" height="12.01" rx="3.42" ry="3.42" transform="translate(-93.14 52.81) rotate(-19.3)"/>
            <path class="cls-6" d="M108.59,302.18s0,0,0,0c-.07.02-.16.01-.22-.03l-2.24-1.3c-.13-.08-.18-.25-.1-.38.08-.13.25-.18.38-.1l1.97,1.14,2.36-5.05c.07-.14.23-.2.37-.13.14.07.2.23.13.37l-2.49,5.33c-.03.07-.09.12-.16.15Z"/>
            <path class="cls-7" d="M172.64,273.1c.03.08-12.02,4.36-26.9,9.57-14.89,5.21-26.97,9.38-27,9.3s12.02-4.36,26.9-9.57c14.88-5.21,26.97-9.37,26.99-9.3Z"/>
            <path class="cls-7" d="M144.35,292.31s-.3.15-.87.37c-.62.23-1.43.53-2.42.9-2.05.74-4.88,1.75-8.01,2.85-3.14,1.1-5.98,2.08-8.04,2.77-1,.33-1.82.6-2.45.81-.58.18-.9.28-.91.26,0-.02.3-.15.87-.37.62-.23,1.43-.53,2.42-.9,2.05-.74,4.88-1.75,8.02-2.85,3.13-1.1,5.98-2.08,8.04-2.77,1-.33,1.82-.6,2.45-.81.58-.18.9-.28.91-.26Z"/>
            <path class="cls-7" d="M173.93,276.78c.03.08-12.02,4.36-26.9,9.57-14.89,5.21-26.97,9.38-27,9.3-.03-.08,12.02-4.36,26.9-9.57,14.88-5.21,26.97-9.37,26.99-9.3Z"/>
          </g>
        </g>
        <path class="cls-7" d="M67.09,191.3l2.45,6.99c1.42,4.06,5.86,6.19,9.92,4.77l51.3-17.96c4.06-1.42,6.19-5.86,4.77-9.92l-2.44-6.98-65.99,23.09Z"/>
        <path class="cls-7" d="M100.77,181.82c-3.8,1.33-7.97-.68-9.3-4.48-1.33-3.8.68-7.97,4.48-9.3,3.8-1.33,7.97.68,9.3,4.48,1.33,3.8-.68,7.97-4.48,9.3ZM96.87,170.69c-2.34.82-3.58,3.39-2.76,5.73.82,2.34,3.39,3.58,5.73,2.76,2.34-.82,3.58-3.39,2.76-5.73-.82-2.34-3.39-3.58-5.73-2.76Z"/>
      </g>
    </g>
    <path class="cls-7" d="M141.77,199.96c.05.13-13.48,4.99-30.21,10.85-16.73,5.86-30.33,10.5-30.38,10.37-.05-.13,13.48-4.99,30.21-10.85,16.73-5.86,30.33-10.5,30.38-10.37Z"/>
    <path class="cls-7" d="M124.44,202.45c.05.13-5.91,2.34-13.3,4.93-7.39,2.59-13.42,4.58-13.47,4.45-.05-.13,5.91-2.34,13.3-4.93,7.39-2.59,13.42-4.58,13.47-4.45Z"/>
  </g>
  <g>
    <g>
      <g>
        <path class="cls-12" d="M390.95,405.08c3.59-1.85,7.82-2.09,11.81-1.43,2.14.35,4.38.99,5.83,2.6,1.46,1.61,1.73,4.44.06,5.82-1,.82-2.39.95-3.68.93-3.12-.04-6.58-.59-9.08,1.29-1.42,1.07-2.37,2.85-4.07,3.38-1.66.52-3.54-.47-4.42-1.97-.88-1.5-.91-3.38-.5-5.07,0,0,.43-3.69,4.05-5.56Z"/>
        <path class="cls-12" d="M382.72,389.2c2.2,3.14,6.46,2.1,8.44.18,1.98-1.91,2.82-4.69,3.58-7.34,1.74-6.05,3.49-12.39,2.2-18.55-.39-1.84-1.08-3.68-2.37-5.04-1.29-1.37-3.28-2.18-5.1-1.7-2.15.57-3.49,2.68-4.46,4.68-2.84,5.89-4.35,12.43-4.37,18.97-.01,3.06.35,6.26,2.07,8.78"/>
        <path class="cls-12" d="M376.69,393.7c2.38-2.83,2.84-6.96,1.78-10.5-1.06-3.55-3.46-6.56-6.22-9.02-3.24-2.89-7.05-5.13-11.14-6.57-1.61-.57-3.31-1.01-5.01-.85-1.7.16-3.41,1.03-4.2,2.54-1.17,2.24-.05,4.95,1.17,7.16,2.14,3.9,4.59,7.63,7.32,11.14,2.19,2.83,4.7,5.62,8.05,6.89s6.81,1.13,8.59-1.19"/>
        <path class="cls-3" d="M382.58,436.51s.11-.51.2-1.43c.1-1.04.23-2.34.38-3.89.18-1.64.42-3.58.87-5.71.45-2.12,1.16-4.41,2.07-6.73.94-2.31,2.09-4.41,3.44-6.09,1.33-1.69,2.89-2.91,4.35-3.61,1.45-.72,2.76-1.01,3.66-1.14.91-.09,1.42-.17,1.42-.21,0-.04-.51-.05-1.44-.02-.93.06-2.28.3-3.82.99-1.54.68-3.19,1.92-4.59,3.65-1.41,1.72-2.6,3.86-3.56,6.22-.93,2.37-1.63,4.68-2.06,6.84-.43,2.16-.63,4.13-.76,5.78-.12,1.65-.17,2.99-.19,3.91-.02.92-.01,1.44.03,1.44Z"/>
        <path class="cls-3" d="M382.84,433.52s.03-.23.04-.66c0-.5,0-1.12,0-1.89,0-1.64,0-4.02.08-6.95.15-5.87.65-12.18,1.63-21.08.92-8.37,2.16-18.11,3.47-24.44.28-1.44.56-2.74.83-3.87.25-1.14.47-2.12.68-2.91.18-.75.33-1.36.44-1.84.09-.42.14-.65.12-.65-.02,0-.1.21-.23.62-.14.48-.33,1.08-.55,1.81-.24.79-.49,1.76-.78,2.89-.3,1.13-.61,2.42-.92,3.86-1.29,5.74-2.67,13.76-3.65,22.68-.98,8.92-1.42,17.04-1.46,22.92-.03,2.94.03,5.32.1,6.96.05.77.09,1.39.12,1.89.03.43.06.66.08.66Z"/>
        <path class="cls-3" d="M382.88,417.86s.03-.7-.01-1.98c-.07-1.27-.25-3.1-.6-5.35-.38-2.24-.91-4.91-1.74-7.8-.36-1.32-1.21-4.49-3.26-9.23-2.7-6.42-6.38-11.66-9.58-14.91-.75-.86-1.58-1.48-2.25-2.09-.35-.29-.65-.58-.96-.81-.31-.22-.6-.42-.87-.6-1.05-.72-1.64-1.1-1.66-1.06-.09.13,2.36,1.57,5.45,4.86,3.08,3.29,6.65,8.5,9.34,14.86,1.5,3.45,2.54,6.53,3.28,9.14.86,2.87,1.42,5.5,1.85,7.72.41,2.23.64,4.04.79,5.3.12,1.26.2,1.96.24,1.96Z"/>
      </g>
      <polygon class="cls-3" points="367.74 445.49 369.31 466.99 396.94 466.99 398.51 445.49 367.74 445.49"/>
      <rect class="cls-3" x="365.08" y="437.01" width="36.73" height="8.48"/>
      <polygon class="cls-8" points="365.08 466.16 365.08 468.51 366.8 468.51 401.19 468.51 401.19 466.16 365.08 466.16"/>
      <polygon class="cls-8" points="368.49 472.65 366.8 468.51 399.88 468.51 397.91 472.65 368.49 472.65"/>
      <path class="cls-7" d="M397.99,452.51s-.04.07-.13.2c-.11.15-.25.33-.41.55-.39.5-.93,1.19-1.61,2.06l-.07.09-.07-.1c-1.01-1.4-2.36-3.27-3.95-5.47h.23c-1.18,1.67-2.49,3.52-3.89,5.51l-.12.17-.14-.16c-1.44-1.71-3-3.56-4.62-5.49h.27c-.08.1-.17.21-.25.32-1.43,1.79-2.82,3.53-4.13,5.17l-.14.17-.13-.18c-1.4-1.98-2.71-3.84-3.89-5.51h.23c-1.92,2.2-3.55,4.05-4.8,5.47l-.09.1-.06-.11c-.63-1.06-1.14-1.91-1.5-2.52-.16-.27-.28-.5-.39-.67-.08-.15-.12-.24-.12-.24,0,0,.06.07.16.21.11.17.25.38.43.65.38.6.91,1.43,1.58,2.48h-.15c1.23-1.45,2.83-3.33,4.72-5.54l.12-.14.11.15c1.19,1.67,2.52,3.51,3.93,5.49h-.26c1.31-1.65,2.69-3.39,4.12-5.19.09-.11.17-.22.25-.32l.13-.16.14.16c1.62,1.93,3.17,3.79,4.6,5.5h-.26c1.42-1.97,2.74-3.82,3.93-5.47l.12-.16.11.16c1.56,2.22,2.88,4.11,3.87,5.53h-.14c.71-.85,1.27-1.52,1.67-2.01.18-.21.33-.38.45-.52.1-.12.16-.17.17-.17Z"/>
      <path class="cls-8" d="M398.89,445.34c0,.1-6.92.17-15.46.17s-15.46-.08-15.46-.17,6.92-.17,15.46-.17,15.46.08,15.46.17Z"/>
      <path class="cls-3" d="M400.29,468.75c0,.09-7.52.17-16.8.17s-16.8-.08-16.8-.17,7.52-.17,16.8-.17,16.8.08,16.8.17Z"/>
    </g>
    <g>
      <g>
        <path class="cls-3" d="M127.8,400.15c-.08.09-.71-.28-1.41-.85-.7-.56-1.21-1.09-1.13-1.19.08-.09.71.28,1.41.85.7.56,1.21,1.09,1.13,1.19Z"/>
        <g>
          <path class="cls-8" d="M146.95,371.51c.12-2.68.19-5.42-.65-7.96-.84-2.54-2.8-4.88-5.43-5.42-2.99-.62-6.06,1.27-7.74,3.82s-2.25,5.66-2.75,8.67c-3.41,20.78-4.67,41.91-3.75,62.95l12.25,1.72c5.38-21.98,7.09-41.18,8.07-63.79Z"/>
          <path class="cls-3" d="M139.18,358.04s-.01.07-.06.2c-.05.15-.12.33-.2.56-.2.52-.47,1.22-.82,2.12-.17.46-.4.96-.58,1.53-.18.57-.38,1.19-.59,1.85-.21.67-.44,1.38-.69,2.13-.2.77-.41,1.58-.63,2.43-.92,3.39-1.69,7.52-2.37,12.12-.66,4.61-1.1,9.71-1.44,15.07-.63,10.73-.72,20.47-1,27.51-.13,3.52-.25,6.37-.39,8.34-.06.95-.12,1.71-.15,2.26-.02.24-.04.43-.05.59-.01.13-.02.2-.03.2,0,0-.01-.07-.01-.2,0-.16,0-.35,0-.59.02-.56.04-1.31.07-2.27.08-1.97.16-4.82.25-8.34.2-7.04.25-16.78.87-27.53.34-5.37.79-10.48,1.48-15.1.7-4.61,1.5-8.74,2.47-12.14.23-.85.45-1.66.66-2.43.25-.75.5-1.46.72-2.13.23-.66.44-1.28.63-1.85.19-.57.43-1.06.62-1.52.38-.88.68-1.58.89-2.09.1-.22.18-.39.24-.54.06-.12.09-.18.1-.18Z"/>
          <path class="cls-3" d="M140.31,358.05s.75.77,1.5,2.53c.77,1.75,1.25,4.53,1.12,7.92-.33,6.77-.93,16.09-1.74,26.39-.81,10.3-1.71,19.6-2.43,26.33-.36,3.36-.67,6.08-.9,7.96-.12.91-.21,1.63-.28,2.16-.03.22-.06.41-.08.56-.02.13-.04.19-.04.19,0,0,0-.07,0-.19.01-.15.02-.34.04-.57.05-.53.11-1.26.2-2.17.18-1.92.45-4.64.77-7.98.64-6.73,1.49-16.04,2.3-26.34.8-10.29,1.46-19.62,1.86-26.36.17-3.37-.25-6.1-.97-7.85-.69-1.76-1.39-2.57-1.34-2.6Z"/>
          <path class="cls-3" d="M148.8,389.74c-.04.11-1.08-.15-2.32-.6-1.24-.45-2.21-.9-2.17-1.01.04-.11,1.08.16,2.32.6,1.24.45,2.21.9,2.17,1.01Z"/>
          <path class="cls-3" d="M150.28,377.26c.05.11-.94.66-2.21,1.23-1.27.57-2.34.94-2.39.83-.05-.11.94-.66,2.21-1.23,1.27-.57,2.34-.94,2.39-.83Z"/>
          <path class="cls-3" d="M149.51,367.07c0,.12-.83.16-1.83.09-1-.07-1.8-.22-1.8-.34,0-.12.83-.16,1.83-.09,1,.07,1.8.22,1.8.34Z"/>
          <path class="cls-3" d="M136.87,360.55c-.1.06-.64-.6-1.2-1.49-.56-.89-.93-1.66-.83-1.73.1-.06.64.6,1.2,1.49.56.89.93,1.66.83,1.73Z"/>
          <path class="cls-3" d="M132.7,366.71c0,.12-.78.2-1.74.18-.96-.02-1.73-.13-1.73-.26,0-.12.78-.2,1.74-.18.96.02,1.73.13,1.73.26Z"/>
          <path class="cls-3" d="M129.7,379.03c-.05.11-.86-.11-1.83-.5-.97-.39-1.71-.8-1.67-.91.05-.11.86.11,1.83.5.97.39,1.71.8,1.67.91Z"/>
          <path class="cls-3" d="M129.38,389.39c.02.12-.67.36-1.56.55-.89.19-1.62.24-1.65.12-.02-.12.67-.36,1.56-.55.89-.19,1.62-.24,1.65-.12Z"/>
          <path class="cls-3" d="M127.97,406.35c.02.12-.72.35-1.65.52-.94.17-1.71.21-1.73.09-.02-.12.72-.35,1.65-.52.93-.17,1.71-.21,1.73-.09Z"/>
          <path class="cls-3" d="M127.03,415.71c.06.11-.56.54-1.38.98-.82.43-1.53.7-1.58.59-.06-.11.56-.54,1.38-.98.82-.43,1.53-.7,1.58-.59Z"/>
          <path class="cls-3" d="M134.67,426.33c-.1.06-.64-.68-1.2-1.66-.56-.98-.93-1.82-.82-1.88.1-.06.64.68,1.2,1.66.56.98.93,1.82.82,1.88Z"/>
          <path class="cls-3" d="M136.88,408.68c.08.09-.51.81-1.34,1.62-.82.81-1.56,1.39-1.65,1.31-.08-.09.51-.81,1.34-1.62.82-.81,1.56-1.39,1.65-1.31Z"/>
          <path class="cls-3" d="M136.39,399.41c-.09.08-.64-.37-1.24-1.02-.6-.65-1.01-1.23-.92-1.32.09-.08.64.37,1.24,1.02.6.64,1.01,1.23.92,1.32Z"/>
          <path class="cls-3" d="M137.91,387.58c.09.08-.41.79-1.12,1.57-.71.79-1.35,1.36-1.44,1.28-.09-.08.41-.79,1.12-1.57.71-.79,1.35-1.36,1.44-1.28Z"/>
          <path class="cls-3" d="M138.76,378.99c-.08.09-.78-.46-1.56-1.22-.78-.76-1.34-1.45-1.25-1.54.08-.09.78.46,1.56,1.22.78.76,1.34,1.45,1.25,1.54Z"/>
          <path class="cls-3" d="M140.44,367.38c.1.06-.25.84-.78,1.74-.54.9-1.05,1.58-1.16,1.51-.1-.06.25-.84.78-1.74.54-.9,1.05-1.58,1.16-1.51Z"/>
          <path class="cls-3" d="M143.59,356.62c.11.06-.2.84-.69,1.74-.49.9-.97,1.59-1.08,1.53-.11-.06.2-.84.69-1.74.49-.9.97-1.59,1.08-1.53Z"/>
          <path class="cls-3" d="M147.17,361.51c.05.11-.44.45-1.09.77-.66.31-1.23.48-1.28.37-.05-.11.44-.45,1.09-.77.66-.31,1.23-.48,1.28-.37Z"/>
          <path class="cls-3" d="M147.25,400.15c-.02.11-1.13-.04-2.4-.58-1.26-.54-2.14-1.23-2.08-1.33.07-.11,1.03.41,2.25.93,1.22.52,2.25.86,2.22.98Z"/>
          <path class="cls-3" d="M145.79,408.33c.02.12-.71.36-1.65.54-.93.18-1.71.23-1.73.11-.02-.12.71-.36,1.65-.54.93-.18,1.71-.23,1.73-.11Z"/>
          <path class="cls-3" d="M143.99,422.36c-.07.09-1.01-.55-1.86-1.64-.86-1.08-1.27-2.14-1.17-2.19.11-.06.68.87,1.51,1.92.82,1.05,1.6,1.81,1.52,1.91Z"/>
          <path class="cls-3" d="M124.31,428.78c-.08-.09.42-.65,1.11-1.24.69-.59,1.32-1,1.4-.91.08.09-.42.65-1.11,1.24-.69.59-1.32,1-1.4.91Z"/>
        </g>
      </g>
      <path class="cls-8" d="M118.65,398.16c-.8-2.49-2.29-5.39-4.91-5.43-1.55-.02-2.95,1.09-3.67,2.46-.73,1.37-1.04,2.96-.99,4.51.3,10.24,2.07,21.95,5.62,32.62h9.56c-.12-11.85-1.99-22.87-5.6-34.15Z"/>
      <path class="cls-8" d="M101.36,382.49c-1.34-5.35-5.32-8.23-9.95-8.5-4.23.74-5.87,4.9-6.37,9.16-.5,4.26.82,8.5,2.13,12.59,4.2,13.12,8.39,26.24,12.59,39.37,3.96-.43,7.93-.87,11.89-1.3-3.76-17.58-5.93-33.88-10.29-51.32Z"/>
      <path class="cls-3" d="M113.75,392.73s-.39.43-.81,1.35c-.41.93-.61,2.41-.45,4.23.19,1.82.39,4.01.7,6.4.31,2.4.74,5.03,1.28,7.78,1.08,5.49,2.3,10.42,3.07,14.01.39,1.8.69,3.25.87,4.26.08.47.15.85.2,1.17.04.27.06.41.04.41s-.06-.13-.13-.39c-.08-.31-.17-.69-.28-1.15-.25-1.07-.59-2.49-1.01-4.23-.85-3.57-2.12-8.49-3.2-14-.54-2.75-.96-5.4-1.25-7.81-.15-1.21-.25-2.36-.35-3.44-.09-1.07-.2-2.07-.26-3-.13-1.84.12-3.38.6-4.32.48-.93.96-1.28.96-1.28Z"/>
      <path class="cls-3" d="M91.58,373.65s-.63.6-1.44,1.93c-.8,1.31-1.65,3.45-1.81,6.22-.18,2.77.44,6.05,1.47,9.58,1.04,3.54,2.19,7.42,3.39,11.5,2.37,8.15,4.52,15.53,6.09,20.93.75,2.65,1.36,4.81,1.8,6.36.19.72.35,1.3.47,1.73.1.4.15.61.13.61-.01,0-.09-.2-.22-.59-.14-.43-.32-1-.55-1.71-.47-1.54-1.13-3.68-1.93-6.32-1.6-5.39-3.79-12.75-6.21-20.89-1.19-4.08-2.33-7.97-3.36-11.52-1.02-3.54-1.62-6.89-1.39-9.71.2-2.82,1.11-4.99,1.97-6.29.86-1.32,1.58-1.84,1.58-1.84Z"/>
      <path class="cls-3" d="M109.05,432.54s-.11-.19-.27-.57c-.16-.38-.41-.94-.68-1.67-.57-1.46-1.29-3.61-2.05-6.32-.76-2.7-1.5-5.96-2.22-9.59-.69-3.64-1.45-7.64-2.24-11.83-.83-4.19-1.75-8.15-2.82-11.69-1.07-3.54-2.26-6.65-3.47-9.16-1.2-2.52-2.35-4.47-3.21-5.78-.41-.67-.78-1.15-1-1.5-.23-.34-.34-.53-.33-.54.01,0,.15.16.4.48.24.33.64.8,1.07,1.45.91,1.28,2.1,3.22,3.34,5.74,1.25,2.52,2.48,5.63,3.57,9.18,1.1,3.55,2.03,7.52,2.86,11.72.78,4.2,1.53,8.2,2.21,11.84.7,3.63,1.4,6.89,2.12,9.59.71,2.7,1.39,4.86,1.91,6.34.24.74.47,1.31.6,1.7.14.39.2.6.19.6Z"/>
      <path class="cls-3" d="M87.38,393.78c.03.12-.62.38-1.45.58-.83.2-1.52.27-1.55.15-.03-.12.62-.38,1.45-.58.83-.2,1.52-.27,1.55-.15Z"/>
      <path class="cls-3" d="M86.12,385.66c0,.12-.91.17-2.01.22-1.1.04-2,.06-2.02-.06-.02-.12.88-.34,2-.38,1.12-.05,2.03.1,2.02.22Z"/>
      <path class="cls-3" d="M87.46,378.24c-.08.09-.72-.33-1.44-.94-.72-.61-1.24-1.18-1.16-1.27.08-.09.72.33,1.44.94.72.61,1.24,1.18,1.16,1.27Z"/>
      <path class="cls-3" d="M91.09,371.38c.12.03.09.61.07,1.3-.02.7-.02,1.28-.14,1.3-.12.02-.32-.56-.29-1.31.02-.75.25-1.32.37-1.29Z"/>
      <path class="cls-3" d="M98.5,374.61c.1.07-.19.66-.65,1.31-.46.65-.91,1.13-1.01,1.06-.1-.07.19-.66.65-1.31.46-.65.91-1.13,1.01-1.06Z"/>
      <path class="cls-3" d="M103.31,382.97c.05.11-.57.47-1.38.8-.81.33-1.5.5-1.54.39-.05-.11.57-.47,1.38-.8.81-.33,1.5-.5,1.54-.39Z"/>
      <path class="cls-3" d="M106.23,391.57c.05.11-.77.57-1.89.82-1.12.26-2.05.19-2.06.07,0-.12.89-.25,1.96-.5,1.07-.24,1.93-.51,1.98-.4Z"/>
      <path class="cls-3" d="M92.83,389.13c-.12-.04-.03-.63.19-1.33.22-.7.49-1.23.6-1.2.12.04.03.63-.19,1.33-.22.7-.49,1.23-.6,1.2Z"/>
      <path class="cls-3" d="M94.7,399.93c-.11-.05.13-.85.54-1.79.41-.94.83-1.66.94-1.61s-.13.85-.54,1.79c-.41.94-.83,1.66-.94,1.61Z"/>
      <path class="cls-3" d="M90.08,402.89c-.05.11-.8-.09-1.71-.38-.91-.29-1.65-.55-1.62-.67.02-.12.82-.04,1.75.25.93.29,1.63.68,1.58.79Z"/>
      <path class="cls-3" d="M92.74,411.69c.07.1-.44.58-1.14,1.08-.7.5-1.32.82-1.39.72-.07-.1.44-.58,1.14-1.08.7-.5,1.32-.82,1.39-.72Z"/>
      <path class="cls-3" d="M94.88,420.47c.03.12-.6.37-1.41.57-.81.2-1.48.26-1.51.14-.03-.12.6-.37,1.41-.57.81-.2,1.48-.26,1.51-.14Z"/>
      <path class="cls-3" d="M106.47,398.91c.06.1-.48.53-1.26.83-.78.3-1.47.33-1.49.21-.02-.12.59-.34,1.34-.62.75-.28,1.36-.52,1.42-.42Z"/>
      <path class="cls-3" d="M108.12,412.56c-.05.11-.69-.08-1.43-.43-.74-.35-1.3-.72-1.25-.83.05-.11.69.08,1.43.43.74.35,1.3.72,1.25.83Z"/>
      <path class="cls-3" d="M111.05,422.34c-.04.11-.89-.11-1.89-.51-1-.39-1.78-.8-1.73-.91.04-.11.89.11,1.89.51,1,.39,1.78.8,1.73.91Z"/>
      <path class="cls-3" d="M95.35,429.99c-.06-.11.72-.63,1.62-1.35.9-.71,1.6-1.34,1.69-1.26.09.08-.48.87-1.42,1.6-.94.74-1.84,1.11-1.89,1Z"/>
      <path class="cls-3" d="M103.07,425.02c-.12.01-.29-.64-.59-1.41-.29-.77-.61-1.36-.51-1.44.09-.07.6.45.92,1.28.32.82.3,1.55.18,1.56Z"/>
      <path class="cls-3" d="M101.03,413.27c-.07.1-.57-.14-1.11-.53-.55-.39-.93-.79-.86-.89.07-.1.57.14,1.11.53.55.39.93.79.86.89Z"/>
      <path class="cls-3" d="M119.04,394.85c.07.1-.41.58-1.09,1.07-.67.5-1.27.82-1.35.72-.07-.1.41-.58,1.09-1.07.67-.5,1.27-.82,1.35-.72Z"/>
      <path class="cls-3" d="M121.75,402.27c.01.12-.75.28-1.69.17-.94-.1-1.65-.42-1.62-.53.04-.12.77,0,1.66.1.9.1,1.64.14,1.64.26Z"/>
      <path class="cls-3" d="M110.08,403.94c.03.12-.68.37-1.59.43-.91.06-1.64-.09-1.63-.21,0-.12.73-.16,1.6-.22.87-.06,1.59-.11,1.62,0Z"/>
      <path class="cls-3" d="M111.09,396.92c0,.12-.72.13-1.5-.23-.78-.36-1.23-.91-1.15-.99.08-.09.62.27,1.33.59.71.33,1.33.5,1.32.62Z"/>
      <path class="cls-3" d="M122.75,410.24c-.06.1-.79-.24-1.63-.77-.84-.53-1.46-1.03-1.4-1.14.06-.1.79.24,1.63.77.84.53,1.46,1.03,1.4,1.14Z"/>
      <g>
        <rect class="cls-12" x="88.97" y="431.06" width="62.25" height="11.03"/>
        <polygon class="cls-12" points="93.62 439.91 101.19 472.88 138.29 472.88 146.58 439.91 93.62 439.91"/>
        <path class="cls-3" d="M151.19,442.11c0,.12-14.04.22-31.36.22s-31.36-.1-31.36-.22,14.04-.22,31.36-.22,31.36.1,31.36.22Z"/>
      </g>
      <path class="cls-3" d="M116.57,404.18c-.1.06-.53-.43-.95-1.11-.42-.68-.68-1.28-.58-1.34.1-.06.53.43.95,1.11.42.68.68,1.28.58,1.34Z"/>
      <path class="cls-3" d="M116.59,413.05c-.11-.04.03-.79.33-1.68.29-.89.63-1.58.74-1.54.11.04-.03.79-.33,1.68-.29.89-.63,1.58-.74,1.54Z"/>
      <path class="cls-3" d="M119.63,422.37c-.11.05-.57-.69-1.04-1.66-.46-.97-.75-1.8-.64-1.85.11-.05.57.69,1.04,1.66.46.97.75,1.8.64,1.85Z"/>
      <path class="cls-3" d="M113.06,429.87c-.09-.08.28-.66.83-1.29.55-.63,1.07-1.08,1.16-1,.09.08-.28.66-.83,1.29-.55.63-1.07,1.08-1.16,1Z"/>
      <path class="cls-3" d="M111.68,416.26c-.02.12-.62.11-1.34-.01-.72-.13-1.28-.33-1.26-.44.02-.12.62-.11,1.34.01.72.13,1.28.33,1.26.44Z"/>
    </g>
  </g>
  <g>
    <g>
      <rect class="cls-7" x="180.63" y="355.24" width="147.62" height="117.72"/>
      <g class="cls-4">
        <path d="M191.38,355.48c17.38,6.2,36.55,7.52,55.2,7.87,3.86.07,7.77.07,11.51,1.04,3.74.97,7.36,3.07,9.28,6.42,2.09,3.65,1.87,8.22.68,12.25-1.19,4.03-3.24,7.75-4.73,11.69-2.61,6.9-3.42,14.48-2.33,21.77.46,3.1,1.29,6.22,3.08,8.8,1.79,2.57,4.68,4.53,7.82,4.58,5.61.08,9.45-5.43,12.23-10.31,11.41-19.99,23.75-42.71,31.05-64.53l-123.8.41Z"/>
      </g>
      <path class="cls-8" d="M230.93,472.33c-.14,0-.26-26.09-.26-58.27s.12-58.28.26-58.28.26,26.09.26,58.28-.12,58.27-.26,58.27Z"/>
    </g>
    <g>
      <g>
        <path class="cls-12" d="M291.42,268.24c-.44-2.93-9.21-12.64-9.21-12.64,0,0-4.39-17.61-5.7-22.8-.33-1.3-1.03-2.77-1.91-4.25-3.06-5.19-7.55-9.4-12.81-12.36l-12.14-6.83-2.91-6.46-29.17-14.99-7.91,13.96s-19.21,6.11-21.75,10.47c-2.54,4.36,1.26,62.8,1.26,62.8,0,0-8.04,33.72-9.74,40.7-1.69,6.98.55,15.3.55,15.3l14.31-17.96c4.45-5.58,14.21-8.14,21.22-8.04l59.91.26-2.38-16.78,48.44,9.42s8.34-16.25,8.99-16.58c.66-.33-39.04-13.22-39.04-13.22Z"/>
        <path class="cls-6" d="M216.32,207.35c-.42-.43,3.39,12.43,8.16,25.52,2.57,7.05,3.86,14.53,3.86,22.07v47.4l28.73-1.95-4.29-31.22s-3.5-20.14-4.48-27.8c-.9-7.01-3.98-26.03-3.98-26.03,0,0-15.97,4.28-27.99-7.97Z"/>
        <path class="cls-3" d="M280.06,280.02s-.04-.26,0-.72c.04-.46.15-1.13.38-1.93.44-1.6,1.47-3.75,3.28-5.57,1.82-1.82,3.97-2.85,5.57-3.3.8-.23,1.47-.34,1.93-.38.46-.04.72-.03.72,0,.01.09-1.01.2-2.54.73-1.53.52-3.57,1.56-5.31,3.31-1.74,1.75-2.78,3.79-3.3,5.32-.53,1.54-.64,2.55-.73,2.54Z"/>
        <path class="cls-3" d="M281.54,268.64c-.06-.11,1.82-1.07,4.39-1.27,2.56-.22,4.58.41,4.53.54-.03.16-2.03-.23-4.49-.02-2.46.19-4.37.9-4.43.75Z"/>
        <g>
          <g class="cls-4">
            <path d="M186.27,294.51l-2.49,2.83c2.67,3.11,6.14,5.71,10.12,6.69,3.98.98,8.11,1.09,12.21,1.11,1.66,0,3.34-.01,4.94-.47,1.62-.47,3.14-1.39,4.83-1.49,1.13-.07,2.24.24,3.35.48,1.11.24,2.28.4,3.36.05,1.08-.35,2.02-1.35,1.95-2.48-12.46-3.64-25.32-5.89-38.27-6.72Z"/>
          </g>
          <path class="cls-9" d="M268.27,298.13l-7.05-7.49-14.5-3.67s-13.29,3.98-13.6,3.97c-.32-.01-11.56-3.07-11.56-3.07l-3.93,14.41,20.25,1.39,23.12-.93s1.21-1.12.49-1.89c-.71-.77,3.87,1.3,4.41,1.32.53.02,1.59.44,2.3-.42.49-.59,1.15-2.48.07-3.62Z"/>
          <path class="cls-5" d="M261.49,300.86c-.03.07-.9-.21-2.3-.66-1.41-.45-3.35-1.04-5.52-1.6-2.18-.56-4.17-.97-5.61-1.26-1.45-.29-2.34-.47-2.33-.54,0-.07.93-.02,2.39.18,1.47.2,3.49.56,5.68,1.12,2.19.56,4.14,1.22,5.52,1.76,1.38.54,2.21.94,2.18,1Z"/>
          <path class="cls-5" d="M268.27,298.13c-.03.07-1.24-.38-3.22-1.04-1.97-.67-4.73-1.48-7.8-2.34-3.06-.91-5.79-1.82-7.86-1.94-2.06-.17-3.32.23-3.34.13,0-.03.29-.15.87-.29.57-.14,1.43-.24,2.49-.21,2.14.03,4.95.91,7.98,1.81,3.07.86,5.83,1.73,7.78,2.49.98.37,1.76.71,2.29.95.53.24.82.4.8.43Z"/>
        </g>
        <path class="cls-12" d="M187.9,212.33s-10.45,7.27-12.99,17.73c-2.54,10.47-13.56,53.2-11.3,59.6,2.26,6.4,46.21,12.67,46.21,12.67l5.21-21.97-22.32-6.11s.28-20.35.56-28.78-5.37-33.14-5.37-33.14Z"/>
        <polygon class="cls-6" points="214.73 283.64 221.92 285.41 217.59 301.99 210.53 300.86 214.73 283.64"/>
        <path class="cls-3" d="M163.44,287.4s-.02.37.11,1.04c.14.66.57,1.62,1.53,2.49,1.91,1.78,5.56,3.26,10.18,4.09h.02s.02,0,.02,0c2.11.69,4.52,1.25,7.1,1.83,2.58.58,5.35,1.17,8.27,1.76,5.85,1.2,12.32,2.45,19.17,3.74l-.3.19c.5-2.04,1.02-4.19,1.55-6.38,1.23-5.04,2.43-9.93,3.56-14.56l.18.3c-7.38-2.11-14.12-4.03-19.83-5.66h-.01s-.01,0-.01,0c-3.03-1.24-6.04-1.69-8.65-1.51-2.62.12-4.82.82-6.53,1.53-1.71.73-2.93,1.53-3.75,2.08-.38.28-.68.49-.91.66-.21.15-.32.22-.32.21,0,0,.09-.1.28-.26.2-.16.48-.41.88-.71.8-.58,2.01-1.42,3.73-2.19,1.71-.75,3.93-1.5,6.6-1.65,2.65-.21,5.73.22,8.83,1.46h-.02c5.73,1.6,12.47,3.49,19.86,5.56l.23.07-.06.24c-1.13,4.63-2.32,9.52-3.54,14.56-.53,2.18-1.06,4.34-1.56,6.38l-.06.24-.24-.05c-6.86-1.29-13.33-2.57-19.17-3.79-2.92-.61-5.69-1.22-8.27-1.81-2.58-.6-4.97-1.17-7.12-1.9h.03c-4.68-.88-8.33-2.42-10.26-4.29-.97-.92-1.38-1.93-1.5-2.62-.1-.69,0-1.05,0-1.05Z"/>
        <path class="cls-3" d="M193.91,275.71c-.06.07-.81-.62-2.15-1.52-1.34-.9-3.32-1.96-5.67-2.65-2.36-.68-4.6-.85-6.21-.81-1.61.04-2.61.21-2.62.13-.01-.05.96-.36,2.61-.49,1.64-.14,3.95-.02,6.37.68,2.42.71,4.43,1.85,5.74,2.85,1.31,1,1.97,1.78,1.93,1.82Z"/>
        <path class="cls-3" d="M196.84,239.91s.04.48.01,1.34c-.02.86-.09,2.11-.21,3.64-.25,3.07-.7,7.31-1.51,11.94-.79,4.64-1.8,8.79-2.77,11.72-.25.73-.5,1.39-.71,1.96-.24.54-.45,1.02-.64,1.44-.41.76-.65,1.17-.68,1.16-.03-.02.15-.46.5-1.24.16-.43.35-.92.55-1.46.19-.58.41-1.23.63-1.97.88-2.94,1.82-7.08,2.61-11.7.8-4.62,1.31-8.83,1.65-11.89.15-1.45.28-2.66.38-3.62.09-.86.15-1.33.19-1.33Z"/>
        <path class="cls-3" d="M222.32,228.58s-.1-.27-.35-.74c-.25-.46-.69-1.11-1.5-1.64-.79-.52-2-.9-3.25-.48-1.23.4-2.44,1.55-2.74,3.11l-.14.71-.31-.66c-1.05-2.27-2.13-4.88-3.06-7.72-1.69-5.15-2.42-10.08-2.26-13.64,0-.89.12-1.69.18-2.39.12-.7.21-1.3.32-1.78.25-.96.41-1.49.44-1.48.13.02-.59,2.13-.57,5.66-.06,3.51.71,8.37,2.39,13.47.92,2.81,1.97,5.42,2.99,7.68l-.45.05c.37-1.75,1.73-2.98,3.09-3.39,1.4-.43,2.72.02,3.53.62.84.6,1.27,1.32,1.48,1.81.1.25.17.45.19.59.03.14.04.21.02.21Z"/>
        <path class="cls-3" d="M246.7,230.83s-.1-.42-.23-1.19c-.11-.77-.36-1.9-.21-3.35.2-1.42.87-3.15,2.41-4.43.76-.63,1.8-1.05,2.91-1.04,1.09,0,2.28.42,3.06,1.37l-.44.25c-.3-.77-.62-1.57-.95-2.39-1.87-4.71-3.53-8.99-4.7-12.09-.55-1.48-1.01-2.72-1.37-3.68-.31-.87-.47-1.36-.44-1.38.03-.01.25.45.63,1.3.4.95.91,2.17,1.52,3.63,1.27,3.07,2.98,7.32,4.85,12.04.32.82.64,1.62.94,2.39l.61,1.54-1.05-1.29c-.65-.8-1.69-1.19-2.66-1.2-.99-.01-1.91.34-2.62.91-1.43,1.14-2.13,2.79-2.35,4.12-.19,1.37,0,2.51.06,3.28.07.78.08,1.21.05,1.21Z"/>
        <path class="cls-3" d="M265.25,233.31c.14-.02,2.4,15.18,5.05,33.95,2.65,18.78,4.67,34.01,4.53,34.03-.14.02-2.4-15.18-5.05-33.96-2.64-18.77-4.67-34.01-4.53-34.03Z"/>
        <g class="cls-4">
          <path d="M211.28,221.32c.12,3.88.97,7.74,2.49,11.29,1.09-1.34,2.3-2.77,3.95-3.16,2.07-.49,4.15.78,5.65,2.33-.32-1.55-.84-3.09-1.8-4.31-.96-1.23-2.43-2.11-3.96-2.07-1.53.04-3.06,1.17-3.34,2.72l-2.87-6.73"/>
        </g>
        <path class="cls-3" d="M194.39,232.31c-.1,0-.06-1.05-.37-2.68-.3-1.63-1.03-3.84-2.43-5.95-.71-1.05-1.5-1.95-2.29-2.72-.81-.74-1.58-1.35-2.29-1.78-1.4-.89-2.39-1.23-2.36-1.32.01-.03.26.03.72.18.23.07.5.17.81.31.31.14.66.29,1.03.51.75.4,1.58,1.01,2.43,1.75.83.77,1.66,1.7,2.39,2.78,1.45,2.18,2.15,4.49,2.36,6.18.11.84.14,1.53.1,2.01-.03.47-.06.73-.09.73Z"/>
      </g>
      <g>
        <g>
          <path class="cls-9" d="M252.44,160.95c-1.18-11.1-10.7-19.43-21.86-19.14l-1.11.03c-11.94,1.01-17.76,11.71-16.42,23.62l3.28,41.89,1.39,1.7c6.42,7.88,17.34,10.46,26.61,6.27h0l-.92-13.48s11.45-2.08,11.3-13.58c-.07-5.56-1.16-16.98-2.26-27.31Z"/>
          <path class="cls-5" d="M243.48,201.83s-7.33.63-15.18-4.02c0,0,3.76,8.18,15.2,6.85l-.02-2.83Z"/>
          <path class="cls-3" d="M248.8,170.46c.05.87-.64,1.63-1.54,1.7-.9.07-1.68-.57-1.73-1.44-.05-.87.64-1.63,1.54-1.7.9-.07,1.68.57,1.73,1.44Z"/>
          <path class="cls-3" d="M249.53,164.21c-.13.2-1.43.34-2.99,1.18-1.56.83-2.49,1.89-2.71,1.87-.1,0-.01-.29.39-.76.4-.46,1.14-1.11,2.11-1.63.97-.52,1.88-.76,2.44-.81.57-.05.82.05.76.14Z"/>
          <path class="cls-3" d="M232.2,171.33c.05.87-.64,1.63-1.54,1.7-.9.07-1.68-.57-1.73-1.44-.05-.87.64-1.63,1.54-1.7.9-.07,1.68.57,1.73,1.44Z"/>
          <path class="cls-3" d="M231.95,166.62c-.23.05-1.3-.67-3.01-1.1-1.71-.43-3.1-.32-3.26-.47-.08-.07.18-.2.79-.25.6-.06,1.58-.01,2.65.25,1.07.27,1.9.68,2.36,1,.46.32.58.55.47.57Z"/>
          <path class="cls-3" d="M238.88,180.35c-.01-.1,1.08-.32,2.86-.59.45-.06.87-.16.94-.47.1-.33-.1-.81-.34-1.33-.45-1.08-.93-2.21-1.42-3.4-1.98-4.84-3.42-8.83-3.23-8.91.2-.08,1.96,3.78,3.94,8.63.48,1.19.93,2.33,1.37,3.42.18.51.49,1.08.28,1.76-.11.34-.44.59-.72.68-.29.1-.54.11-.76.13-1.79.14-2.9.18-2.91.08Z"/>
          <path class="cls-3" d="M231.98,159.8c-.2.47-1.95.16-4.03.31-2.09.11-3.79.63-4.04.19-.11-.21.2-.65.9-1.08.69-.43,1.78-.82,3.03-.9,1.25-.08,2.38.18,3.12.52.75.34,1.11.74,1.02.96Z"/>
          <path class="cls-3" d="M249.49,160.19c-.38.41-1.91,0-3.73,0-1.83-.05-3.37.3-3.73-.11-.16-.2.08-.61.75-.99.66-.39,1.77-.71,3.03-.69,1.25.02,2.35.37,2.98.78.65.41.86.82.7,1.01Z"/>
          <path class="cls-3" d="M255.79,150.78c-.22-1.04-1.25-1.93-2.3-1.77.56-.2,1.14-.41,1.59-.81.45-.4.73-1.04.54-1.6-.29-.89-1.43-1.07-2.33-1.33-1.18-.33-2.24-1.04-3-2-1.09-1.38-1.51-3.18-2.46-4.66-1.22-1.92-3.35-3.25-5.61-3.5-2.27-.25-4.63.58-6.24,2.19-1.76-1.8-4.41-2.69-6.9-2.31-2.49.38-4.75,2.02-5.89,4.26-3.05-1.27-6.77-.75-9.36,1.32-2.58,2.06-3.91,5.58-3.35,8.84l7.16,4.39c.12-2.21,2.59-3.97,4.72-3.36,2.16.62,3.54,3.13,5.79,3.3,1.75.13,3.23-1.22,4.93-1.67,2.05-.55,4.22.27,6.07,1.32,1.85,1.04,3.61,2.34,5.67,2.86,2.42.61,4.99.08,7.3-.87.99-.4,1.97-.9,2.7-1.67.73-.77,1.19-1.87.98-2.92Z"/>
          <path class="cls-3" d="M218.88,150.41l32.8-.19c-1.08-2.23-2.95-3.99-4.97-5.44-4.35-3.11-9.64-4.98-14.99-4.93-5.35.05-16.05,6.87-19.82,10.66-3.02,3.04-2.93,5.59-2.93,5.59-.37,4.26,2.14,9.03,3.2,13.17.55,2.14,1.67,8.62,1.67,8.62,0,0,0,0,0,0,1.81-.06,2.44-1.51,2.11-3.29l-.53-7s6.02-4.54,2.89-12.44c-.49-.62-1.56-3.51.57-4.76Z"/>
          <path class="cls-3" d="M214.92,167.15c-1.67-5.81-3.2-12.03-1.43-17.81-.32-.01-.65-.03-.97-.04l-.41.3c-1.83-.62-4.03.08-5.17,1.65-1.14,1.56-1.13,3.87.01,5.43-1.94-.09-3.81,1.53-3.98,3.47-.12,1.34.46,2.63,1.06,3.83.6,1.2,1.24,2.45,1.25,3.79,0,1.34-.85,2.8-2.18,2.96.6,1.38,2.26,2.19,3.71,1.8-.46,1.14-1.25,2.13-2.25,2.84,2.14,1.45,5.07.96,7.39-.17,1.38-.67,2.73-1.63,3.29-3.05.62-1.58.15-3.36-.32-4.99Z"/>
          <path class="cls-9" d="M214.38,173.92c-.2-.08-7.96-2.13-7.51,5.72.45,7.85,8.24,5.78,8.24,5.55,0-.23-.74-11.27-.74-11.27Z"/>
          <path class="cls-5" d="M213.24,182.34s-.13.1-.36.22c-.22.12-.6.21-1.02.08-.85-.26-1.62-1.53-1.74-2.95-.06-.71.05-1.4.27-1.98.21-.59.55-1.01.97-1.11.41-.12.72.11.83.33.12.21.08.37.12.38.02.02.16-.14.08-.46-.04-.15-.14-.33-.34-.47-.2-.14-.48-.2-.77-.16-.6.08-1.12.67-1.36,1.3-.28.64-.42,1.41-.35,2.22.14,1.58,1.04,3.01,2.19,3.28.56.11,1.01-.08,1.24-.28.23-.21.26-.39.24-.4Z"/>
          <path class="cls-8" d="M206.23,167.41s-.22-.3-.14-.91c.07-.6.51-1.47,1.47-2.05.95-.58,2.26-.72,3.6-.87,1.32-.14,2.83-.52,3.58-1.82.76-1.27.78-2.82.61-4.12-.19-1.32-.54-2.52-.71-3.55-.42-2.08-.02-3.41.05-3.37.09.01-.14,1.29.37,3.28.22,1,.61,2.17.84,3.56.19,1.37.22,3.03-.65,4.52-.44.73-1.13,1.29-1.87,1.58-.74.3-1.48.4-2.17.48-1.37.12-2.58.22-3.45.69-.86.45-1.31,1.19-1.44,1.71-.14.53-.03.86-.09.87Z"/>
          <path class="cls-8" d="M204.33,163.98s-.17-.22-.24-.71c-.06-.48-.03-1.23.39-2.02.21-.39.51-.79.93-1.12.41-.34.97-.56,1.51-.7.53-.16,1.09-.29,1.49-.61.4-.32.58-.84.59-1.44.02-.6-.07-1.23-.05-1.86,0-.62.08-1.22.2-1.78.24-1.12.65-2.07,1.13-2.81.47-.76,1.23-1.13,1.74-1.11.52,0,.74.24.71.26-.02.05-.26-.09-.7-.02-.44.05-1,.39-1.39,1.1-.39.7-.74,1.63-.94,2.69-.1.53-.15,1.09-.15,1.68,0,.58.09,1.19.07,1.88,0,.67-.25,1.45-.83,1.88-.57.43-1.19.54-1.71.69-1.08.21-1.8.81-2.22,1.5-.83,1.41-.41,2.52-.52,2.52Z"/>
          <path class="cls-8" d="M250.29,143.27s-.59.43-1.62-.06c-.5-.22-1-.7-1.48-1.26-.48-.57-1.03-1.18-1.82-1.62-1.53-.87-4.02-1.1-5.92.39-.97.7-1.83,1.69-2.96,2.51-.56.4-1.22.76-1.97.91-.74.15-1.53.04-2.24-.21-1.42-.51-2.53-1.38-3.75-1.82-1.22-.47-2.49-.68-3.69-.66-2.42,0-4.52.92-5.95,2.05-1.45,1.13-2.31,2.39-2.81,3.29-.49.91-.67,1.47-.72,1.45-.02,0,0-.15.08-.42.07-.27.21-.66.43-1.14.45-.95,1.27-2.3,2.75-3.52,1.45-1.22,3.65-2.23,6.21-2.27,1.27-.03,2.61.17,3.91.67,1.32.48,2.46,1.35,3.74,1.8.64.23,1.29.31,1.92.19.63-.12,1.2-.43,1.73-.8,1.06-.75,1.94-1.74,2.98-2.48,1.03-.77,2.29-1.15,3.43-1.14,1.15,0,2.2.33,3.04.82.85.49,1.43,1.19,1.87,1.77.46.58.88,1.03,1.33,1.27.9.51,1.52.21,1.51.27Z"/>
        </g>
        <path class="cls-3" d="M234.52,182.41c.25-.06.53,1.62,2.17,2.57,1.64.95,3.39.46,3.45.7.04.1-.34.39-1.1.54-.74.15-1.86.09-2.86-.49-1-.58-1.54-1.49-1.71-2.17-.18-.69-.06-1.14.05-1.15Z"/>
      </g>
      <g>
        <path class="cls-12" d="M338,338.66c-2.97-2.65-7.08-3.88-11.05-3.65l-6.76,21.48c4.95.22,9.89,2.77,14.67,1.46,3.84-1.05,6.75-4.66,7.28-8.6.53-3.94-1.18-8.04-4.15-10.69Z"/>
        <path class="cls-11" d="M327.08,334.51c.01-.17.73-.31,2.05-.29,1.3.04,3.24.18,5.53,1.04,2.3.85,4.8,2.59,6.73,5.23.97,1.32,1.78,2.89,2.25,4.66.48,1.76.56,3.73.17,5.63-.39,1.91-1.23,3.7-2.46,5.13-1.23,1.44-2.8,2.43-4.36,3.02-3.15,1.18-6.18.99-8.5.55-2.34-.46-4.1-1.14-5.3-1.64-1.19-.51-1.81-.89-1.76-1.06.05-.17.78-.12,2.05.09,1.27.2,3.07.59,5.27.79,2.18.2,4.82.13,7.34-.95,1.25-.54,2.41-1.34,3.31-2.44.91-1.1,1.55-2.5,1.86-4.01.65-3.05-.28-6.1-1.83-8.4-1.56-2.32-3.59-3.98-5.51-4.92-1.93-.96-3.71-1.39-4.93-1.72-1.23-.32-1.93-.53-1.91-.71Z"/>
        <g>
          <path class="cls-12" d="M264.45,415.06l-14.7,41.19,51.15,18.55c1.47-4.99-21.43-24.4-21.43-24.4l10.5-26-25.52-9.33Z"/>
          <g class="cls-1">
            <path class="cls-6" d="M264.46,442.45c-1.09-.09-2.18.78-2.31,1.86-.13,1.08.74,2.2,1.82,2.3,1.09.11,2.42-.89,2.43-1.98.01-1.09-1.08-2.34-2.16-2.19"/>
          </g>
          <path class="cls-6" d="M249.75,456.25l1.48-4.16,48.59,19.38s1.92,1.82,1.08,3.33l-51.15-18.55Z"/>
          <path class="cls-3" d="M280.4,450.44c-.1.25-1.39-.09-2.91.26-1.53.32-2.56,1.17-2.75.99-.21-.13.7-1.49,2.55-1.89,1.84-.42,3.25.43,3.11.64Z"/>
          <path class="cls-3" d="M284.96,454.61c-.03.26-1.27.3-2.5,1.04-1.25.71-1.88,1.78-2.13,1.68-.25-.05.11-1.57,1.66-2.47,1.54-.92,3.05-.49,2.97-.25Z"/>
          <path class="cls-3" d="M285.67,462.13c-.25-.03-.14-1.4,1-2.54,1.13-1.14,2.5-1.26,2.53-1.01.07.26-.96.72-1.88,1.66-.94.92-1.39,1.95-1.65,1.89Z"/>
          <path class="cls-3" d="M282.13,444.25c-.19.19-1.21-.57-2.65-.99-1.44-.45-2.71-.37-2.76-.63-.08-.23,1.33-.77,3.03-.25,1.7.5,2.58,1.72,2.39,1.87Z"/>
          <path class="cls-3" d="M283.11,437.74c-.03.1-1.08-.1-2.56-.94-.74-.42-1.57-1.01-2.38-1.8-.41-.39-.81-.83-1.19-1.31-.18-.24-.4-.49-.55-.88-.18-.36-.1-1.08.37-1.37.4-.3.93-.3,1.3-.17.38.12.66.31.91.48.52.34.99.73,1.39,1.12.82.8,1.41,1.65,1.8,2.41.79,1.53.85,2.61.75,2.63-.14.04-.44-.95-1.32-2.3-.44-.67-1.04-1.42-1.82-2.12-.39-.35-.83-.68-1.31-.99-.49-.34-.95-.51-1.18-.32-.08.07-.1.11-.05.31.06.19.23.41.41.65.35.46.71.88,1.07,1.26.73.77,1.48,1.38,2.13,1.85,1.32.94,2.26,1.36,2.2,1.49Z"/>
          <path class="cls-3" d="M282.66,437.98c-.1,0-.27-1.07.22-2.72.25-.82.68-1.76,1.37-2.68.34-.46.75-.9,1.22-1.32.48-.4,1.09-.94,2.1-.7.51.16.79.71.81,1.1.04.41-.03.72-.08,1.03-.12.63-.35,1.21-.62,1.73-.56,1.03-1.33,1.77-2.05,2.25-1.48.96-2.63.88-2.62.79-.04-.16,1.01-.32,2.23-1.32.6-.49,1.24-1.2,1.68-2.11.22-.46.4-.96.49-1.5.12-.57.07-1.09-.15-1.1-.25-.1-.83.16-1.2.51-.43.36-.81.76-1.14,1.16-.66.81-1.12,1.64-1.42,2.38-.61,1.48-.69,2.51-.84,2.5Z"/>
        </g>
        <path class="cls-3" d="M214.9,305.06c-7.76.18-15.12,1.28-20.46,6.9-7.09,7.46-15.85,18.1-16.35,25.47-.74,11.02,5.9,14.3,10.76,16.98,2.15,1.19,4.59,1.72,7.05,1.63l89.68-.68,2.82-15.19-58-14.3,2.41-21.83-17.9,1.01Z"/>
        <path class="cls-3" d="M232.79,304.05l28.21-1.3s48.73,2.71,59.13,12.24c10.4,9.53,9.1,20.36,5.63,30.75s-34,76.88-34,76.88c0,0,2.48,4.23,1.08,8.45-2.16,6.53-7.96,7.58-7.96,7.58l-27.12-9.97s-3.68-1.3-1.08-4.76c2.6-3.47,4.33-4.11,4.33-4.11v-6.93s9.53-17.33,10.4-19.71c.87-2.38,10-37.64,10-37.64l6.07-10.43s-14.67-6.9-27.39-11.9l-29.7-7.32,2.41-21.83Z"/>
        <path class="cls-8" d="M278.55,427.43c-.05.07-.91-.61-2.38-1.56-1.47-.95-3.58-2.13-6.07-3.08-2.49-.94-4.86-1.47-6.59-1.73-1.73-.27-2.82-.33-2.81-.41,0-.06,1.1-.13,2.86.05,1.76.17,4.19.65,6.73,1.61,2.54.97,4.66,2.22,6.1,3.26,1.44,1.04,2.21,1.82,2.17,1.86Z"/>
        <path class="cls-8" d="M292.1,422.67c-.05.04-.66-.58-1.58-1.66-.91-1.07-2.13-2.6-3.41-4.33-1.28-1.73-2.37-3.35-3.12-4.54-.75-1.19-1.17-1.96-1.12-2,.06-.04.59.65,1.42,1.79.95,1.3,2.03,2.79,3.23,4.44,1.22,1.64,2.32,3.12,3.28,4.41.84,1.13,1.34,1.84,1.29,1.89Z"/>
        <path class="cls-8" d="M302.04,335.58c.02.08-1,.3-2.57.82-1.57.52-3.69,1.4-5.84,2.74-2.14,1.34-3.87,2.86-5.02,4.04-1.16,1.18-1.8,2-1.87,1.95-.05-.03.49-.93,1.6-2.2,1.1-1.27,2.83-2.87,5.02-4.24,2.19-1.36,4.38-2.21,6.01-2.65,1.63-.44,2.67-.53,2.68-.47Z"/>
        <path class="cls-8" d="M274.3,382.66s.02-.21.11-.59c.11-.43.25-.98.42-1.65.4-1.5.95-3.55,1.62-6.05,1.44-5.16,3.39-12.17,5.55-19.91,1.13-3.88,2.09-7.59,3.18-10.94,1.26-3.33,3.26-5.89,5.11-7.79,1.86-1.9,3.61-3.18,4.85-4,.63-.4,1.12-.7,1.46-.88.34-.19.53-.28.53-.26.02.04-.68.46-1.88,1.31-1.2.86-2.89,2.17-4.7,4.08-1.79,1.9-3.72,4.45-4.92,7.7-1.04,3.31-2.01,7.05-3.13,10.92-2.22,7.73-4.22,14.72-5.7,19.87-.74,2.49-1.34,4.52-1.78,6.01-.21.66-.38,1.2-.51,1.63-.12.37-.19.56-.21.56Z"/>
        <path class="cls-8" d="M249.35,331.87c-.14.01-.74-5.26-1.32-11.78-.59-6.52-.95-11.82-.81-11.83.14-.01.74,5.26,1.32,11.78.59,6.52.95,11.81.81,11.83Z"/>
        <path class="cls-8" d="M202.39,345.95c-.08.04-.51-.81-1.4-2.07-.88-1.25-2.26-2.87-4.1-4.3-1.84-1.43-3.74-2.39-5.17-2.93-1.43-.55-2.36-.77-2.34-.86,0-.05.98.03,2.47.51,1.49.47,3.47,1.4,5.37,2.87,1.89,1.48,3.27,3.18,4.08,4.51.82,1.33,1.14,2.25,1.09,2.27Z"/>
        <path class="cls-8" d="M219.67,326.8c-.05.08-1.25-.69-3.32-1.63-2.07-.95-5.06-1.98-8.49-2.48-3.44-.49-6.6-.33-8.85,0-2.25.32-3.62.72-3.64.63-.01-.03.32-.16.93-.36.61-.21,1.52-.43,2.65-.64,2.26-.42,5.48-.64,8.98-.15,3.49.51,6.52,1.62,8.57,2.67,1.03.52,1.83.99,2.36,1.36.53.36.82.57.8.6Z"/>
        <path class="cls-8" d="M287.23,340.16s-.25-.02-.7-.12c-.51-.11-1.17-.25-1.99-.43-1.78-.4-4.27-.96-7.31-1.64-6.17-1.38-14.71-3.24-24.18-5.11-9.47-1.87-18.07-3.41-24.31-4.49-3.07-.53-5.58-.96-7.38-1.27-.83-.15-1.5-.27-2.01-.36-.46-.09-.7-.14-.69-.16s.25,0,.71.06c.51.07,1.18.15,2.02.26,1.75.24,4.29.61,7.41,1.1,6.25.98,14.87,2.46,24.35,4.34,9.47,1.88,18.01,3.79,24.16,5.26,3.08.74,5.56,1.35,7.27,1.8.81.22,1.47.39,1.97.53.45.13.68.2.68.22Z"/>
        <path class="cls-8" d="M230.38,328.45c-.1.03-.31-1.19-1.24-2.87-.47-.83-1.15-1.76-2.05-2.65-.89-.9-1.98-1.81-3.14-2.72-2.34-1.79-4.72-3.06-6.42-3.99-1.72-.92-2.78-1.49-2.74-1.56.03-.06,1.15.39,2.91,1.23,1.75.85,4.19,2.08,6.57,3.91,1.18.92,2.27,1.84,3.17,2.79.91.94,1.59,1.93,2.03,2.81.44.89.68,1.66.8,2.19.12.54.15.84.12.85Z"/>
        <path class="cls-3" d="M330.27,342.01c.12.11-1.38,1.63-2.55,3.93-1.19,2.29-1.55,4.4-1.71,4.37-.13,0,0-2.22,1.24-4.6,1.22-2.4,2.94-3.8,3.02-3.69Z"/>
      </g>
    </g>
    <g class="cls-4">
      <path d="M266.08,239.54l6.42,45.22.32.72c1.52-15.56-.82-31.48-6.74-45.94Z"/>
    </g>
    <g>
      <path class="cls-7" d="M300.65,265.52l-20.87,36.51-51.43,1.12-.13,2.33,49.8-.37,1.58-.05,52.59.1,10.63-18.33,13.58-19.46c.89-1.28-.03-3.02-1.58-3.02l-52.49.2c-.69,0-1.32.37-1.66.97Z"/>
      <g>
        <path class="cls-9" d="M342.81,286.83s2.7,2.48,2.28,4.58c-.43,2.1-.28,3.67-2.28,3.81,0,0,.14,2.7-2.7,3.13,0,0,.61,3.3-3.23,3.87,0,0-1.18,3.53-3.6,2.67s-3.98-1.85-3.98-1.85l-.71-1.28s-3.56-1.34-2.68-3.35c.53-1.22,2.38-1.54,2.38-1.54,0,0-.77-1.79.23-3.13.85-1.15,3.64-.2,3.64-.2,0,0-.16-1.48.88-2.72.95-1.12,5.37,1.93,5.37,1.93l2.42-2.88,2-3.04Z"/>
        <path class="cls-5" d="M336.88,302.22c-.08.12-2.06-.98-4.44-2.45-2.38-1.48-4.24-2.77-4.16-2.89.08-.12,2.06.97,4.44,2.45,2.37,1.48,4.24,2.77,4.16,2.89Z"/>
        <path class="cls-5" d="M340.11,298.35c-.07.12-1.92-.85-4.12-2.18-2.2-1.33-3.92-2.5-3.85-2.62.07-.12,1.92.85,4.12,2.18,2.2,1.33,3.92,2.5,3.85,2.62Z"/>
        <path class="cls-5" d="M335.71,291.11c.08-.15,1.73.72,3.65,1.94,1.92,1.23,3.47,2.18,3.43,2.28-.07.17-1.79-.61-3.71-1.84-1.93-1.22-3.43-2.27-3.38-2.38Z"/>
      </g>
      <path class="cls-3" d="M356.39,265.74s-.09.02-.25.03c-.2,0-.44.02-.74.03-.69.01-1.64.03-2.84.05-2.51.02-6.07.05-10.44.08-8.86.02-21.02.05-34.45.08-.84,0-1.68,0-2.51,0-.79-.06-1.5.29-1.91.9-.79,1.43-1.57,2.83-2.34,4.22-1.54,2.77-3.02,5.45-4.43,8-2.83,5.09-5.38,9.67-7.53,13.53-2.14,3.81-3.89,6.91-5.12,9.1-.6,1.04-1.07,1.86-1.41,2.46-.15.26-.28.46-.38.63-.09.14-.14.21-.14.21,0,0,.03-.08.1-.23.09-.18.2-.39.33-.66.32-.61.77-1.45,1.33-2.51,1.2-2.21,2.89-5.33,4.97-9.18,2.12-3.88,4.64-8.48,7.44-13.59,1.4-2.56,2.88-5.24,4.41-8.02.77-1.39,1.55-2.81,2.35-4.25.49-.78,1.47-1.21,2.34-1.14.83,0,1.67,0,2.51,0,13.44.03,25.6.06,34.45.08,4.38.03,7.93.06,10.44.08,1.2.02,2.15.04,2.84.05.3.01.54.02.74.03.17,0,.25.02.25.03Z"/>
      <path class="cls-6" d="M319.39,284.09c-.93,1.03-.95,2.52-.05,3.34.9.81,2.39.64,3.31-.39.93-1.03.95-2.52.05-3.34-.9-.81-2.39-.64-3.32.39Z"/>
    </g>
  </g>
  <g class="cls-4">
    <path d="M173.39,269.97c-.45.18-.95.48-.96.96,0,.39.36.7.74.78.38.08,1.76-.49,2.14-.57,5.41-1.19,9.86-.05,15.01,1.97l.17-.17c-2.06-4.34-11.28-5.32-17.1-2.97Z"/>
  </g>
  <path class="cls-3" d="M452.02,472.96c0,.14-90.46.26-202.01.26s-202.03-.12-202.03-.26,90.44-.26,202.03-.26,202.01.12,202.01.26Z"/>
  <g>
    <path class="cls-8" d="M145.42,154.21c.17.17,33.38-11.24,33.38-11.24l-12.77-29.3-29.56,11.3,16.26,9.34-7.31,19.9Z"/>
    <path class="cls-8" d="M160.99,122.49v-39.9s45.81-8.37,78.81-7.88c33,.49,66.99,5.91,66.99,5.91v38.3s-103.44-9.24-145.8,3.57Z"/>
    <path class="cls-3" d="M160.76,122.53l18.04,20.61v-24.21s-15.09,1.81-18.04,3.6Z"/>
    <path class="cls-3" d="M160.99,82.59c.14,0,.21,8.94.14,19.97-.07,11.03-.24,19.97-.38,19.97-.14,0-.21-8.94-.14-19.97.07-11.03.24-19.96.38-19.96Z"/>
    <path class="cls-8" d="M322.32,151.15c-.17.17-33.38-11.24-33.38-11.24l12.77-29.3,29.56,11.3-16.26,9.34,7.31,19.9Z"/>
    <path class="cls-3" d="M306.98,119.47l-18.04,20.61v-22.46c6.01.2,12.03.82,18.04,1.85Z"/>
    <path class="cls-3" d="M306.8,80.63c.14,0,.3,8.69.35,19.42.05,10.73-.02,19.42-.17,19.42-.14,0-.3-8.69-.35-19.42-.05-10.72.02-19.42.17-19.42Z"/>
    <g>
      <path class="cls-6" d="M186.83,100.09c-.44-3.18,1.69-5.8,4.97-6.25,1.82-.25,3.44.2,4.6,1.27l-1.37,1.66c-.82-.72-1.77-1.01-2.82-.87-1.97.27-3.18,1.85-2.91,3.85.28,1.99,1.87,3.18,3.85,2.91,1.06-.15,1.89-.69,2.48-1.62l1.77,1.23c-.83,1.36-2.26,2.23-4.1,2.49-3.27.45-6.03-1.48-6.47-4.67Z"/>
      <path class="cls-6" d="M197.74,98.59c-.32-3.15,1.89-5.73,5.23-6.08,3.33-.34,6.04,1.72,6.36,4.88.33,3.16-1.9,5.73-5.23,6.08-3.35.34-6.04-1.73-6.36-4.88ZM206.85,97.65c-.21-2.01-1.77-3.24-3.66-3.05-1.89.19-3.17,1.72-2.97,3.73.21,2.01,1.77,3.24,3.66,3.05,1.89-.19,3.17-1.72,2.97-3.73Z"/>
      <path class="cls-6" d="M221.31,101.92l-.43-6.38-2.79,5.45-1.11.07-3.44-4.92.4,6.24-2.31.15-.68-10.63,2.03-.13,4.4,6.35,3.49-6.86,2.02-.13.71,10.63-2.31.15Z"/>
      <path class="cls-6" d="M235.08,94.64c.07,2.37-1.67,3.9-4.52,3.98l-2.14.06.08,2.94-2.46.07-.3-10.65,4.61-.13c2.84-.08,4.67,1.35,4.73,3.73ZM232.58,94.71c-.03-1.17-.81-1.83-2.32-1.79l-2.01.06.1,3.7,2.01-.06c1.51-.04,2.25-.75,2.21-1.9Z"/>
      <path class="cls-6" d="M236.95,90.77h2.46v8.64h5.34v2.01h-7.8v-10.65Z"/>
      <path class="cls-6" d="M254.35,99.72l-.06,1.98-8.25-.24.31-10.65,8.05.23-.06,1.98-5.6-.16-.07,2.31,4.94.14-.06,1.92-4.94-.14-.07,2.46,5.8.17Z"/>
      <path class="cls-6" d="M258.91,93.3l-3.4-.2.12-2,9.26.56-.12,2-3.4-.21-.52,8.62-2.46-.15.52-8.62Z"/>
      <path class="cls-6" d="M273.86,101.18l-.18,1.97-8.21-.76.98-10.61,8.02.74-.18,1.97-5.58-.52-.21,2.3,4.92.46-.18,1.91-4.92-.46-.23,2.45,5.77.54Z"/>
      <path class="cls-6" d="M276.94,92.79l4.79.64c3.45.46,5.54,2.86,5.11,6.05-.43,3.2-3.07,4.96-6.52,4.5l-4.79-.64,1.41-10.55ZM280.47,101.96c2.1.28,3.63-.79,3.9-2.81.27-2.02-.93-3.46-3.03-3.73l-2.23-.3-.87,6.54,2.23.3Z"/>
    </g>
  </g>
  <polygon class="cls-8" points="327.29 84.26 329.91 87.33 337.29 84.26 335.13 81.03 327.29 84.26"/>
  <path class="cls-12" d="M323.91,69.65c0,2.12-1.72,3.84-3.84,3.84s-3.84-1.72-3.84-3.84,1.72-3.84,3.84-3.84,3.84,1.72,3.84,3.84Z"/>
  <path class="cls-12" d="M237.89,126.93c0,1.06-.86,1.92-1.92,1.92s-1.92-.86-1.92-1.92.86-1.92,1.92-1.92,1.92.86,1.92,1.92Z"/>
  <path class="cls-12" d="M148.44,98.07c0,.81-.65,1.46-1.46,1.46s-1.46-.65-1.46-1.46.65-1.46,1.46-1.46,1.46.65,1.46,1.46Z"/>
  <polygon class="cls-8" points="143.02 82 147.32 82.26 149.36 73.8 145.34 73.97 143.02 82"/>
  <polygon class="cls-12" points="277.42 149.53 278.87 153.59 287.45 152.15 285.72 148.52 277.42 149.53"/>
  <polygon class="cls-8" points="190.64 126.1 187.99 129.5 193.8 135.97 195.94 132.56 190.64 126.1"/>
  <g>
    <polygon class="cls-12" points="180.36 46.22 190.52 56.58 204.82 51.18 205.38 54.73 199.19 67.4 204.9 76.86 204.42 79.69 190.59 77.36 182.41 86.33 180.49 84.88 178.8 73.47 165.9 66.75 165.33 64.15 178.32 60.59 180.36 46.22"/>
    <g class="cls-4">
      <polygon points="180.36 46.22 190.52 56.58 204.82 51.18 205.38 54.73 199.19 67.4 204.9 76.86 204.42 79.69 190.59 77.36 182.41 86.33 180.49 84.88 178.8 73.47 165.9 66.75 165.33 64.15 178.32 60.59 180.36 46.22"/>
    </g>
    <polygon class="cls-12" points="180.36 43.32 190.52 53.68 204.82 51.18 198.1 64.04 204.9 76.86 190.59 74.46 180.49 84.88 178.36 70.53 165.33 64.15 178.32 57.68 180.36 43.32"/>
  </g>
  <g>
    <polygon class="cls-12" points="285.62 46.22 275.46 56.58 261.16 51.18 260.6 54.73 266.79 67.4 261.09 76.86 261.56 79.69 275.39 77.36 283.57 86.33 285.49 84.88 287.18 73.47 300.08 66.75 300.65 64.15 287.66 60.59 285.62 46.22"/>
    <g class="cls-4">
      <polygon points="285.62 46.22 275.46 56.58 261.16 51.18 260.6 54.73 266.79 67.4 261.09 76.86 261.56 79.69 275.39 77.36 283.57 86.33 285.49 84.88 287.18 73.47 300.08 66.75 300.65 64.15 287.66 60.59 285.62 46.22"/>
    </g>
    <polygon class="cls-12" points="285.62 43.32 275.46 53.68 261.16 51.18 267.88 64.04 261.09 76.86 275.39 74.46 285.49 84.88 287.62 70.53 300.65 64.15 287.66 57.68 285.62 43.32"/>
  </g>
  <g>
    <polygon class="cls-12" points="232.66 28.06 241.11 44.57 260.6 43.42 259.94 47.96 247.56 61.07 250.92 74.79 249.26 78.05 233.27 69.94 219.88 77.78 218.09 75.27 220.37 60.7 207.19 47.59 207.49 44.2 224.69 44.81 232.66 28.06"/>
    <g class="cls-4">
      <polygon points="232.66 28.06 241.11 44.57 260.6 43.42 259.94 47.96 247.56 61.07 250.92 74.79 249.26 78.05 233.27 69.94 219.88 77.78 218.09 75.27 220.37 60.7 207.19 47.59 207.49 44.2 224.69 44.81 232.66 28.06"/>
    </g>
    <polygon class="cls-12" points="233.76 24.52 242.21 41.02 260.6 43.42 247.51 56.56 250.92 74.79 234.38 66.4 218.09 75.27 220.96 56.95 207.49 44.2 225.8 41.26 233.76 24.52"/>
  </g>
  <g>
    <g>
      <path class="cls-2" d="M267.43,172.63l14.12,1.56c3.4-4.84,8.14-8.83,13.97-11.34,16.77-7.22,36.21.53,43.43,17.3,7.22,16.77-.53,36.21-17.3,43.43-16.77,7.22-36.21-.53-43.43-17.3-3.01-7-3.41-14.47-1.64-21.32v.02s-9.16-12.34-9.16-12.34Z"/>
      <path class="cls-3" d="M267.43,172.63c.55.73,3.41,4.52,9.25,12.27h-.22s0,0,0,0c.03-.06.11-.09.18-.05.05.03.08.09.06.15-1.17,4.57-1.62,10.58.22,17.07.47,1.61,1.04,3.26,1.83,4.86.4.8.78,1.62,1.22,2.43.49.78.98,1.57,1.48,2.37,2.15,3.1,4.94,6.02,8.35,8.38,3.4,2.37,7.42,4.19,11.79,5.14,4.37.95,9.1,1.07,13.76.06,4.65-1.01,9.21-3.06,13.17-6.1,3.94-3.04,7.36-7.02,9.55-11.72,2.26-4.77,3.47-9.99,3.28-15.09-.14-5.09-1.48-10.02-3.7-14.32-2.22-4.3-5.32-8.01-8.94-10.78-3.6-2.79-7.65-4.71-11.71-5.8-4.07-1.09-8.14-1.34-11.94-.96-3.81.4-7.26,1.54-10.35,2.86-6.15,2.82-10.39,7.08-13.07,10.85-.03.04-.07.06-.12.05-8.94-1.06-13.24-1.58-14.11-1.68.87.09,5.18.52,14.14,1.43l-.12.05c2.66-3.82,6.91-8.15,13.12-11.04,3.11-1.36,6.61-2.53,10.46-2.94,3.84-.4,7.97-.16,12.1.94,4.12,1.09,8.22,3.03,11.89,5.85,3.67,2.8,6.82,6.56,9.09,10.92,2.27,4.36,3.63,9.36,3.78,14.54.19,5.18-1.03,10.48-3.32,15.33-2.23,4.78-5.7,8.82-9.71,11.91-4.02,3.09-8.66,5.17-13.38,6.18-4.73,1.01-9.54.89-13.97-.09-4.44-.98-8.5-2.83-11.95-5.24-3.45-2.41-6.27-5.37-8.43-8.52-.5-.81-1-1.61-1.49-2.4-.44-.82-.82-1.65-1.22-2.46-.79-1.62-1.36-3.29-1.83-4.92-1.83-6.57-1.33-12.64-.12-17.24l.24.1v.02c-.04.06-.12.09-.18.05-.02,0-.03-.02-.04-.04-5.71-7.84-8.5-11.68-9.04-12.42Z"/>
    </g>
    <g>
      <path class="cls-3" d="M296.4,181.44s.02.16.03.46c0,.33.02.75.03,1.28.01,1.15.03,2.77.06,4.81.03,4.15.07,9.99.11,16.99l-.23-.23c6.85-.01,14.92-.02,23.53-.04.06-.06-.49.49-.26.26h0v-1.6c0-.53,0-1.07,0-1.6,0-1.06,0-2.11,0-3.15,0-2.08,0-4.11,0-6.08,0-3.95.02-7.68.03-11.1l.23.23c-7-.05-12.84-.09-16.99-.11-2.04-.03-3.65-.04-4.81-.06-.53-.01-.95-.02-1.28-.03-.29,0-.45-.02-.46-.03,0,0,.13-.02.41-.03.32,0,.73-.02,1.24-.03,1.14-.01,2.74-.03,4.76-.06,4.18-.03,10.08-.07,17.13-.11h.22s0,.23,0,.23c0,3.42.02,7.15.03,11.1,0,1.98,0,4.01,0,6.08,0,1.04,0,2.09,0,3.15,0,.53,0,1.06,0,1.6v.8s0,.4,0,.4v.38h0v.02c.23-.23-.32.32-.26.26-8.61-.01-16.68-.02-23.53-.04h-.23s0-.23,0-.23c.05-7.06.09-12.95.11-17.13.02-2.01.04-3.61.06-4.76.01-.51.02-.92.03-1.24,0-.28.02-.42.03-.41Z"/>
      <path class="cls-12" d="M317.39,185.33c.34.27-2.83,4.83-7.07,10.18-.85,1.07-1.67,2.09-2.44,3.02l-.5.61-.56-.51c-3.68-3.31-6.17-5.85-5.94-6.11.23-.26,3.1,1.84,6.91,4.99l-1.07.1c.73-.96,1.53-2,2.38-3.07,4.24-5.35,7.96-9.48,8.3-9.21Z"/>
    </g>
  </g>
</svg>