<?xml version="1.0" encoding="UTF-8"?>
<svg id="Character" xmlns="http://www.w3.org/2000/svg" viewBox="0 0 500 500">
  <defs>
    <style>
      .cls-1 {
        opacity: .6;
      }

      .cls-2 {
        fill: #fafafa;
      }

      .cls-3 {
        fill: #263238;
      }

      .cls-4 {
        opacity: .3;
      }

      .cls-5 {
        fill: #eb996e;
      }

      .cls-6 {
        fill: #fff;
      }

      .cls-7 {
        fill: #e0e0e0;
      }

      .cls-8 {
        fill: #455a64;
      }

      .cls-9 {
        fill: #ffbe9d;
      }

      .cls-10 {
        fill: #ebebeb;
      }

      .cls-11 {
        fill: #f5f5f5;
      }

      .cls-12 {
        fill: #4caf4f;
      }
    </style>
  </defs>
  <g>
    <g>
      <rect class="cls-2" x="33.9" y="34.08" width="96.05" height="85.93"/>
      <path class="cls-7" d="M129.95,120.02s-.02-.55-.02-1.6c0-1.05-.01-2.6-.03-4.6-.01-4.03-.03-9.93-.06-17.44-.03-15.01-.07-36.47-.11-62.29l.22.22c-27.66.01-60.67.02-96.04.04h0l.26-.26c-.01,31.26-.02,60.68-.03,85.93l-.23-.23c28.65.05,52.64.09,69.47.11,8.42.03,15.05.05,19.59.06,2.26.01,4,.02,5.19.03.58,0,1.03,0,1.34.01.3,0,.46.01.46.01,0,0-.14,0-.44.01-.31,0-.74,0-1.31.01-1.18,0-2.9.02-5.14.03-4.53.01-11.14.03-19.54.06-16.87.03-40.9.07-69.62.11h-.23s0-.23,0-.23c0-25.25-.02-54.67-.03-85.93v-.26h.27c35.37.01,68.38.03,96.04.04h.22v.22c-.05,25.88-.09,47.38-.11,62.43-.02,7.49-.04,13.37-.06,17.39-.01,1.99-.02,3.52-.02,4.56,0,1.03-.02,1.55-.02,1.55Z"/>
    </g>
    <path class="cls-7" d="M70.73,49.35c0,.14-5.06.26-11.29.26s-11.29-.12-11.29-.26,5.05-.26,11.29-.26,11.29.11,11.29.26Z"/>
    <path class="cls-7" d="M111.43,55.81c0,.14-13.89.26-31.02.26s-31.02-.11-31.02-.26,13.89-.26,31.02-.26,31.02.11,31.02.26Z"/>
    <rect class="cls-7" x="48.31" y="66.74" width="4.05" height="4.05"/>
    <rect class="cls-7" x="58.27" y="66.74" width="4.05" height="4.05"/>
    <rect class="cls-7" x="68.42" y="66.55" width="4.05" height="4.05"/>
    <rect class="cls-7" x="78.19" y="66.74" width="4.05" height="4.05"/>
    <rect class="cls-7" x="88.15" y="66.74" width="4.05" height="4.05"/>
    <rect class="cls-7" x="98.12" y="66.74" width="4.05" height="4.05"/>
    <rect class="cls-10" x="108.08" y="66.74" width="4.05" height="4.05"/>
    <rect class="cls-10" x="48.31" y="75.34" width="4.05" height="4.05"/>
    <rect class="cls-7" x="58.27" y="75.34" width="4.05" height="4.05"/>
    <rect class="cls-10" x="68.23" y="75.34" width="4.05" height="4.05"/>
    <rect class="cls-7" x="78.19" y="75.34" width="4.05" height="4.05"/>
    <rect class="cls-7" x="88.15" y="75.34" width="4.05" height="4.05"/>
    <rect class="cls-7" x="98.3" y="75.15" width="4.05" height="4.05"/>
    <rect class="cls-7" x="108.08" y="75.34" width="4.05" height="4.05"/>
    <rect class="cls-7" x="48.31" y="83.94" width="4.05" height="4.05"/>
    <rect class="cls-7" x="58.46" y="83.76" width="4.05" height="4.05"/>
    <rect class="cls-7" x="68.23" y="83.94" width="4.05" height="4.05"/>
    <rect class="cls-10" x="78.19" y="83.94" width="4.05" height="4.05"/>
    <rect class="cls-7" x="88.15" y="83.94" width="4.05" height="4.05"/>
    <rect class="cls-7" x="98.12" y="83.94" width="4.05" height="4.05"/>
    <rect class="cls-7" x="108.08" y="83.94" width="4.05" height="4.05"/>
    <rect class="cls-7" x="48.31" y="92.54" width="4.05" height="4.05"/>
    <rect class="cls-7" x="58.27" y="92.54" width="4.05" height="4.05"/>
    <rect class="cls-7" x="68.23" y="92.54" width="4.05" height="4.05"/>
    <rect class="cls-7" x="78.38" y="92.36" width="4.05" height="4.05"/>
    <rect class="cls-7" x="88.15" y="92.54" width="4.05" height="4.05"/>
    <rect class="cls-10" x="98.12" y="92.54" width="4.05" height="4.05"/>
    <rect class="cls-7" x="108.08" y="92.54" width="4.05" height="4.05"/>
    <rect class="cls-7" x="48.31" y="101.15" width="4.05" height="4.05"/>
    <rect class="cls-10" x="58.27" y="101.15" width="4.05" height="4.05"/>
    <rect class="cls-7" x="68.23" y="101.15" width="4.05" height="4.05"/>
    <rect class="cls-7" x="78.19" y="101.15" width="4.05" height="4.05"/>
    <rect class="cls-7" x="88.15" y="101.15" width="4.05" height="4.05"/>
    <rect class="cls-7" x="98.3" y="100.96" width="4.05" height="4.05"/>
    <rect class="cls-7" x="108.08" y="101.15" width="4.05" height="4.05"/>
  </g>
  <g>
    <g>
      <rect class="cls-6" x="402.46" y="35.83" width="68.04" height="68.04"/>
      <path class="cls-7" d="M470.5,103.88s0-.11-.01-.33c0-.23,0-.54-.01-.95,0-.85-.01-2.07-.03-3.66-.01-3.21-.03-7.9-.06-13.85-.03-11.91-.07-28.89-.11-49.25l.23.23c-19.78.01-43.13.02-68.04.04h0l.26-.26c-.01,24.92-.02,48.26-.04,68.04l-.23-.23c20.37.05,37.35.09,49.26.11,5.95.03,10.64.05,13.85.06,1.59.01,2.82.02,3.66.03.41,0,.72,0,.95.01.21,0,.33.01.33.01,0,0-.1,0-.3.01-.22,0-.53,0-.92.01-.84,0-2.05.01-3.62.03-3.2.01-7.87.03-13.8.06-11.94.03-28.97.07-49.4.11h-.23s0-.23,0-.23c-.01-19.78-.02-43.13-.04-68.04v-.26s.26,0,.26,0h0c24.91.01,48.26.02,68.04.04h.23s0,.23,0,.23c-.05,20.43-.09,37.46-.11,49.4-.03,5.93-.05,10.6-.06,13.8-.01,1.57-.02,2.78-.03,3.62,0,.4,0,.7-.01.92,0,.21-.01.3-.01.3Z"/>
    </g>
    <path class="cls-7" d="M470.21,53.25c0,.14-15.17.26-33.87.26s-33.88-.12-33.88-.26,15.16-.26,33.88-.26,33.87.12,33.87.26Z"/>
    <circle class="cls-7" cx="409.08" cy="44.19" r="1.93"/>
    <circle class="cls-7" cx="414.96" cy="44.19" r="1.93"/>
    <path class="cls-7" d="M422.77,44.19c0,1.06-.86,1.93-1.93,1.93s-1.93-.86-1.93-1.93.86-1.93,1.93-1.93,1.93.86,1.93,1.93Z"/>
    <circle class="cls-10" cx="416.24" cy="67.73" r="5.53"/>
    <path class="cls-10" d="M421.77,88.04c0,3.05-2.48,5.53-5.53,5.53s-5.53-2.48-5.53-5.53,2.48-5.53,5.53-5.53,5.53,2.48,5.53,5.53Z"/>
    <path class="cls-7" d="M460.34,67.28c0,.14-7.56.26-16.89.26s-16.89-.12-16.89-.26,7.56-.26,16.89-.26,16.89.12,16.89.26Z"/>
    <path class="cls-7" d="M438.73,87.93c0,.14-2.69.26-6,.26s-6.01-.12-6.01-.26,2.69-.26,6.01-.26,6,.12,6,.26Z"/>
    <circle class="cls-7" cx="460.34" cy="92.77" r="21.45"/>
    <g>
      <rect class="cls-6" x="460.36" y="84.63" width="2" height="15.92"/>
      <rect class="cls-6" x="453.4" y="91.59" width="15.92" height="2"/>
    </g>
  </g>
  <g>
    <circle class="cls-7" cx="51.34" cy="253.31" r="21.45" transform="translate(-94.68 40.05) rotate(-22.94)"/>
    <g>
      <rect class="cls-6" x="51.35" y="245.18" width="2" height="15.92"/>
      <rect class="cls-6" x="44.39" y="252.14" width="15.92" height="2"/>
    </g>
  </g>
  <g>
    <rect class="cls-11" x="165.74" y="348.53" width="145.68" height="67.18"/>
    <path class="cls-7" d="M307.95,412.55h-138.87v-60.48h138.87v60.48ZM169.98,411.64h137.06v-58.67h-137.06v58.67Z"/>
    <rect class="cls-7" x="311.42" y="348.53" width="35.59" height="67.18"/>
    <path class="cls-7" d="M169.53,370.78h137.97c.24,0,.24-.37,0-.37h-137.97c-.24,0-.24.37,0,.37h0Z"/>
    <path class="cls-7" d="M238.96,370.6c.41-5.96.37-12.28.05-18.25-.01-.24-.36-.24-.37,0-.32,5.97-.37,12.29.05,18.25.01.18.26.18.28,0h0Z"/>
    <path class="cls-7" d="M276.1,361.47c0,1.04-.84,1.88-1.88,1.88s-1.88-.84-1.88-1.88.84-1.88,1.88-1.88,1.88.84,1.88,1.88Z"/>
    <path class="cls-7" d="M203.69,361.47c0,1.04-.84,1.88-1.88,1.88s-1.88-.84-1.88-1.88.84-1.88,1.88-1.88,1.88.84,1.88,1.88Z"/>
    <path class="cls-7" d="M240.39,382.31c0,1.04-.84,1.88-1.88,1.88s-1.88-.84-1.88-1.88.84-1.88,1.88-1.88,1.88.84,1.88,1.88Z"/>
    <polygon class="cls-7" points="183.16 415.71 175.66 457.89 179.88 457.89 193.7 415.71 183.16 415.71"/>
    <polygon class="cls-7" points="301.11 415.71 307.38 457.97 303.16 457.97 290.56 415.71 301.11 415.71"/>
    <polygon class="cls-7" points="329.27 415.71 336.38 457.97 332.16 457.97 318.72 415.71 329.27 415.71"/>
    <path class="cls-7" d="M240.26,401.32c0,1.04-.84,1.88-1.88,1.88s-1.88-.84-1.88-1.88.84-1.88,1.88-1.88,1.88.84,1.88,1.88Z"/>
    <path class="cls-7" d="M169.53,391.59h137.97c.24,0,.24-.37,0-.37h-137.97c-.24,0-.24.37,0,.37h0Z"/>
  </g>
  <path class="cls-3" d="M461.43,458.08c0,.14-97.8.26-218.42.26s-218.44-.12-218.44-.26,97.78-.26,218.44-.26,218.42.12,218.42.26Z"/>
  <g>
    <g>
      <g>
        <rect class="cls-6" x="86.46" y="68.72" width="299.89" height="264.22"/>
        <rect class="cls-6" x="86.46" y="229.59" width="299.89" height="44.64"/>
        <rect class="cls-11" x="86.46" y="178.52" width="299.89" height="51.08"/>
        <rect class="cls-11" x="86.46" y="281.53" width="299.89" height="51.08"/>
        <path class="cls-3" d="M267.53,194.42c0,.14-35.37.26-78.98.26s-78.99-.12-78.99-.26,35.36-.26,78.99-.26,78.98.12,78.98.26Z"/>
        <path class="cls-3" d="M176.24,208.64c0,.14-15.03.26-33.57.26s-33.57-.12-33.57-.26,15.03-.26,33.57-.26,33.57.12,33.57.26Z"/>
        <path class="cls-3" d="M267.53,244.81c0,.14-35.37.26-78.98.26s-78.99-.12-78.99-.26,35.36-.26,78.99-.26,78.98.12,78.98.26Z"/>
        <path class="cls-3" d="M176.24,259.02c0,.14-15.03.26-33.57.26s-33.57-.12-33.57-.26,15.03-.26,33.57-.26,33.57.12,33.57.26Z"/>
        <path class="cls-3" d="M267.53,295.19c0,.14-35.37.26-78.98.26s-78.99-.12-78.99-.26,35.36-.26,78.99-.26,78.98.12,78.98.26Z"/>
        <path class="cls-3" d="M176.24,309.4c0,.14-15.03.26-33.57.26s-33.57-.12-33.57-.26,15.03-.26,33.57-.26,33.57.12,33.57.26Z"/>
        <rect class="cls-7" x="86.46" y="68.39" width="299.89" height="25.21"/>
        <rect class="cls-11" x="86.46" y="91.21" width="299.89" height="25.21"/>
        <g>
          <path class="cls-3" d="M104.51,80.2c0,1.75-1.42,3.17-3.17,3.17s-3.17-1.42-3.17-3.17,1.42-3.17,3.17-3.17,3.17,1.42,3.17,3.17Z"/>
          <path class="cls-3" d="M116.13,80.2c0,1.75-1.42,3.17-3.17,3.17s-3.17-1.42-3.17-3.17,1.42-3.17,3.17-3.17,3.17,1.42,3.17,3.17Z"/>
          <path class="cls-3" d="M127.74,80.2c0,1.75-1.42,3.17-3.17,3.17s-3.17-1.42-3.17-3.17,1.42-3.17,3.17-3.17,3.17,1.42,3.17,3.17Z"/>
        </g>
      </g>
      <path class="cls-3" d="M386.41,332.95c0-1.68-.06-102.97-.15-264.56l.15.21c-81.94.01-186.36.03-299.74.05h-.02l.19-.26c0,93.92-.01,183.36-.01,264.56l-.17-.24c176.22.14,298.19.24,299.76.24-1.57,0-123.54.1-299.76.24h-.17s0-.24,0-.24c0-81.21,0-170.65-.01-264.56v-.26h.21c113.37.02,217.8.04,299.74.05h.15v.21c-.09,161.59-.15,262.89-.15,264.56Z"/>
    </g>
    <g>
      <rect class="cls-12" x="270.79" y="131.28" width="82.52" height="27.91" rx="5.77" ry="5.77"/>
      <g>
        <path class="cls-6" d="M290.04,145.08h-1.8v1.77h-.83v-1.77h-1.8v-.78h1.8v-1.78h.83v1.78h1.8v.78Z"/>
        <path class="cls-6" d="M298.81,146.41h-3.67l-.76,1.73h-1.02l3.13-6.91h.98l3.14,6.91h-1.04l-.76-1.73ZM298.46,145.62l-1.49-3.39-1.49,3.39h2.98Z"/>
        <path class="cls-6" d="M306.38,140.81v7.33h-.91v-.83c-.42.59-1.1.89-1.87.89-1.53,0-2.65-1.08-2.65-2.68s1.12-2.67,2.65-2.67c.74,0,1.39.28,1.83.84v-2.88h.95ZM305.44,145.52c0-1.12-.76-1.84-1.76-1.84s-1.77.72-1.77,1.84.76,1.85,1.77,1.85,1.76-.73,1.76-1.85Z"/>
        <path class="cls-6" d="M313.12,140.81v7.33h-.91v-.83c-.42.59-1.1.89-1.87.89-1.53,0-2.65-1.08-2.65-2.68s1.12-2.67,2.65-2.67c.74,0,1.39.28,1.83.84v-2.88h.95ZM312.18,145.52c0-1.12-.76-1.84-1.76-1.84s-1.77.72-1.77,1.84.76,1.85,1.77,1.85,1.76-.73,1.76-1.85Z"/>
        <path class="cls-6" d="M319.09,142.09h-2.37v-.86h5.72v.86h-2.37v6.05h-.98v-6.05Z"/>
        <path class="cls-6" d="M327.24,144.98v3.16h-.9v-.69c-.32.47-.9.75-1.72.75-1.18,0-1.94-.63-1.94-1.54,0-.84.54-1.53,2.1-1.53h1.5v-.19c0-.8-.46-1.26-1.4-1.26-.62,0-1.25.22-1.66.56l-.39-.71c.54-.43,1.32-.67,2.16-.67,1.43,0,2.24.69,2.24,2.12ZM326.3,146.54v-.73h-1.46c-.94,0-1.2.37-1.2.81,0,.52.43.85,1.16.85s1.27-.33,1.51-.93Z"/>
        <path class="cls-6" d="M328.34,147.59l.39-.75c.44.32,1.16.54,1.84.54.88,0,1.24-.27,1.24-.71,0-1.17-3.31-.16-3.31-2.24,0-.94.84-1.57,2.18-1.57.68,0,1.45.18,1.91.47l-.41.75c-.47-.31-1-.42-1.51-.42-.83,0-1.23.31-1.23.72,0,1.23,3.32.23,3.32,2.26,0,.95-.87,1.55-2.26,1.55-.87,0-1.73-.27-2.16-.61Z"/>
        <path class="cls-6" d="M335.99,145.7l-1.09,1.01v1.43h-.95v-7.33h.95v4.7l2.85-2.61h1.15l-2.2,2.16,2.42,3.07h-1.17l-1.96-2.44Z"/>
      </g>
    </g>
    <g>
      <path class="cls-3" d="M119.56,142.87h-2.99v-1.76h8.13v1.76h-2.99v7.58h-2.16v-7.58Z"/>
      <path class="cls-3" d="M131.55,148.45h-4.33l-.83,2h-2.21l4.16-9.34h2.13l4.17,9.34h-2.27l-.83-2ZM130.87,146.81l-1.48-3.57-1.48,3.57h2.96Z"/>
      <path class="cls-3" d="M134.88,149.53l.73-1.63c.79.57,1.96.97,3.08.97,1.28,0,1.8-.43,1.8-1,0-1.75-5.43-.55-5.43-4.01,0-1.59,1.28-2.91,3.93-2.91,1.17,0,2.37.28,3.24.83l-.67,1.64c-.87-.49-1.76-.73-2.59-.73-1.28,0-1.77.48-1.77,1.07,0,1.72,5.43.53,5.43,3.96,0,1.56-1.29,2.89-3.96,2.89-1.48,0-2.97-.44-3.8-1.08Z"/>
      <path class="cls-3" d="M147.52,146.78l-1.25,1.31v2.36h-2.15v-9.34h2.15v4.36l4.13-4.36h2.4l-3.87,4.16,4.09,5.17h-2.52l-2.99-3.67Z"/>
      <path class="cls-3" d="M153.06,149.53l.73-1.63c.79.57,1.96.97,3.08.97,1.28,0,1.8-.43,1.8-1,0-1.75-5.43-.55-5.43-4.01,0-1.59,1.28-2.91,3.93-2.91,1.17,0,2.37.28,3.24.83l-.67,1.64c-.87-.49-1.76-.73-2.59-.73-1.28,0-1.77.48-1.77,1.07,0,1.72,5.43.53,5.43,3.96,0,1.56-1.29,2.89-3.96,2.89-1.48,0-2.97-.44-3.8-1.08Z"/>
    </g>
    <path class="cls-7" d="M316.2,198.09h43.81c4.89,0,8.85,3.97,8.85,8.85h0c0,4.89-3.97,8.85-8.85,8.85h-43.81c-4.89,0-8.85-3.97-8.85-8.85h0c0-4.89,3.97-8.85,8.85-8.85Z"/>
    <path class="cls-10" d="M360.01,266.93h-43.81c-4.89,0-8.85-3.96-8.85-8.85h0c0-4.89,3.96-8.85,8.85-8.85h43.81c4.89,0,8.85,3.96,8.85,8.85h0c0,4.89-3.96,8.85-8.85,8.85Z"/>
    <rect class="cls-7" x="307.35" y="299.32" width="61.51" height="17.71" rx="8.85" ry="8.85"/>
  </g>
  <g>
    <g>
      <path class="cls-12" d="M78.99,385.16c-8.04,2.81-18.53.3-25.41-4.72-6.88-5.02-11.83-12.22-16.22-19.52-1.87-3.12-3.7-6.36-4.29-9.95-.59-3.59.28-7.62,3.06-9.96,4.32-3.64,10.95-1.79,15.86,1,15.36,8.75,25.85,25.51,27.01,43.16"/>
      <path class="cls-12" d="M70.35,404.41c-4.83,6.37-13.13,9.21-21.11,9.58-7.99.37-15.88-1.84-23.34-4.7-2.71-1.04-5.67-2.46-6.6-5.21-.7-2.08.02-4.45,1.41-6.15,1.39-1.7,3.37-2.81,5.39-3.67,7.35-3.13,15.77-3.28,23.5-1.27,7.73,2,14.48,6.49,20.76,11.43"/>
      <path class="cls-12" d="M79.1,350.7c-6.66.13-11.7-5.7-14.71-11.64-4.17-8.22-5.59-17.82-3.96-26.89.61-3.4,1.9-7.07,4.94-8.71,3.09-1.66,7.12-.57,9.71,1.8,2.59,2.37,4.01,5.75,5.05,9.1,3.57,11.56,2.8,24.85-1.03,36.33"/>
      <path class="cls-12" d="M100.97,387.53c-11.35-19.32-13.24-42.95-6.54-64.33,1.09-3.47,3.14-7.44,6.77-7.67,4.02-.25,6.54,4.22,7.64,8.09,3.89,13.58,3.06,28,2.2,42.09-.53,8.68-3.51,16.11-10.08,21.82"/>
      <path class="cls-12" d="M112.78,395.47c4.11-13.23,14.58-24.33,27.54-29.21,3.01-1.13,6.85-1.78,9.09.52,2.2,2.26,1.53,6.04.11,8.87-2.29,4.56-6,8.23-9.69,11.75-3.36,3.2-6.86,6.41-11.11,8.27-4.25,1.86-12.06,2.33-15.95-.2"/>
      <path class="cls-3" d="M42.4,345.84s.06.07.2.18c.16.13.36.28.61.47.58.43,1.37,1.03,2.38,1.78.52.39,1.1.81,1.73,1.27.62.48,1.27,1.03,1.98,1.61,1.4,1.17,3.07,2.44,4.74,4.03.85.78,1.75,1.59,2.68,2.43.93.85,1.82,1.81,2.78,2.76,1.95,1.88,3.85,4.07,5.88,6.33,3.94,4.64,7.98,9.99,11.7,15.96,3.67,6,6.65,12.01,9.04,17.61,1.12,2.83,2.23,5.51,3.04,8.09.42,1.29.88,2.51,1.23,3.72.34,1.21.67,2.37.98,3.48.67,2.21,1.06,4.26,1.48,6.04.2.89.4,1.72.56,2.49.13.77.26,1.47.37,2.11.22,1.24.4,2.21.53,2.92.06.31.11.56.15.76.04.17.06.26.07.26,0,0,0-.09-.02-.26-.03-.2-.06-.46-.1-.77-.1-.71-.25-1.7-.43-2.94-.1-.64-.21-1.35-.32-2.13-.14-.77-.33-1.61-.51-2.5-.4-1.79-.76-3.85-1.41-6.07-.3-1.12-.62-2.28-.95-3.5-.34-1.22-.79-2.45-1.2-3.74-.79-2.6-1.9-5.29-3-8.14-2.38-5.63-5.36-11.68-9.04-17.7-3.74-5.99-7.81-11.35-11.79-16-2.05-2.26-3.97-4.45-5.94-6.33-.97-.95-1.88-1.9-2.81-2.75-.94-.84-1.84-1.64-2.71-2.41-1.69-1.58-3.37-2.82-4.8-3.98-.72-.57-1.38-1.11-2.01-1.58-.64-.45-1.23-.86-1.76-1.24-1.03-.72-1.85-1.29-2.44-1.7-.26-.17-.47-.32-.64-.43-.15-.09-.22-.14-.23-.13Z"/>
      <path class="cls-3" d="M27.37,399.39s.27-.03.78-.13c.51-.09,1.24-.29,2.21-.45,1.92-.38,4.73-.8,8.22-1.01,6.94-.44,16.81.38,26.69,4.49,9.88,4.11,17.42,10.53,22,15.77,2.31,2.62,3.99,4.91,5.08,6.54.57.8.95,1.46,1.24,1.88.28.43.44.65.46.64.02,0-.11-.25-.36-.7-.26-.44-.62-1.12-1.16-1.94-1.04-1.67-2.68-4-4.97-6.67-4.53-5.33-12.1-11.87-22.08-16.02-9.97-4.15-19.94-4.92-26.92-4.37-3.51.25-6.32.74-8.24,1.18-.96.19-1.69.42-2.19.55-.5.14-.76.22-.75.23Z"/>
      <path class="cls-3" d="M69.29,311.18s0,.1.04.3c.05.22.11.51.18.87.18.8.43,1.91.75,3.33.65,2.89,1.65,7.05,2.9,12.19,2.5,10.28,6.13,24.44,9.92,40.14,1.88,7.85,3.58,15.35,5.05,22.19,1.44,6.84,2.67,13.02,3.58,18.23.49,2.6.86,4.96,1.21,7.03.36,2.07.63,3.86.85,5.32.22,1.43.4,2.56.52,3.37.06.36.11.65.15.87.04.2.06.3.07.3,0,0,0-.1-.01-.3-.03-.23-.06-.52-.1-.88-.1-.81-.24-1.94-.42-3.38-.18-1.47-.43-3.26-.76-5.34-.32-2.08-.66-4.45-1.13-7.05-.87-5.22-2.06-11.41-3.47-18.27-1.44-6.85-3.13-14.36-5.01-22.21-3.79-15.7-7.48-29.84-10.07-40.1-1.29-5.1-2.33-9.24-3.07-12.15-.36-1.4-.64-2.51-.84-3.3-.1-.35-.17-.63-.23-.86-.06-.19-.09-.29-.1-.29Z"/>
      <path class="cls-3" d="M95.36,423.76s.03-.08.07-.23c.04-.19.09-.42.16-.7.14-.66.32-1.56.56-2.69.48-2.34,1.12-5.73,1.85-9.93,1.46-8.4,3.18-20.08,4.24-33.06.51-6.49.8-12.69.93-18.33.09-5.64.04-10.73-.13-14.99-.05-2.13-.19-4.06-.29-5.75-.09-1.69-.21-3.15-.32-4.34-.11-1.15-.19-2.07-.25-2.74-.03-.29-.06-.52-.08-.71-.02-.16-.04-.24-.05-.24,0,0-.01.08,0,.24,0,.19.02.43.03.71.04.67.09,1.59.15,2.74.08,1.19.17,2.64.22,4.34.06,1.69.18,3.62.21,5.75.13,4.26.14,9.33.02,14.97-.15,5.63-.45,11.82-.97,18.3-1.06,12.96-2.72,24.63-4.08,33.04-.68,4.21-1.26,7.61-1.68,9.96-.19,1.14-.35,2.04-.46,2.71-.04.28-.08.52-.11.71-.02.16-.03.24-.02.24Z"/>
      <path class="cls-3" d="M94.52,426.22s.12-.22.3-.67c.19-.49.44-1.14.75-1.94.16-.43.34-.9.53-1.4.23-.51.47-1.05.73-1.63.26-.59.54-1.21.83-1.88.29-.66.67-1.34,1.03-2.06.37-.72.76-1.47,1.16-2.25.44-.76.9-1.55,1.38-2.37.91-1.67,2.09-3.32,3.23-5.12,2.43-3.5,5.29-7.23,8.55-10.93,3.29-3.67,6.65-6.95,9.81-9.82,1.63-1.38,3.13-2.75,4.63-3.91.74-.59,1.46-1.16,2.15-1.71.71-.52,1.39-1.02,2.04-1.5,1.29-.98,2.5-1.79,3.56-2.51,1.06-.73,1.98-1.34,2.75-1.8.73-.46,1.31-.83,1.76-1.11.4-.26.6-.4.6-.42,0-.02-.23.1-.65.33-.46.26-1.06.6-1.81,1.03-.79.44-1.73,1.02-2.81,1.73-1.09.69-2.32,1.49-3.62,2.45-.66.47-1.35.97-2.07,1.48-.7.54-1.42,1.11-2.18,1.69-1.53,1.14-3.04,2.51-4.69,3.88-3.19,2.86-6.58,6.15-9.88,9.83-3.27,3.71-6.13,7.47-8.56,11.01-1.13,1.82-2.3,3.49-3.2,5.18-.47.83-.92,1.63-1.36,2.4-.39.79-.77,1.55-1.13,2.28-.35.73-.72,1.41-1,2.08-.28.67-.55,1.31-.8,1.9-.25.59-.48,1.14-.69,1.66-.18.52-.34.99-.49,1.43-.27.82-.49,1.48-.65,1.98-.14.45-.21.7-.19.7Z"/>
      <path class="cls-3" d="M46.61,368.25c0,.08,1.38.08,3.59.21,2.21.12,5.25.41,8.57,1.04,3.31.63,6.25,1.48,8.35,2.18,2.1.7,3.38,1.2,3.41,1.12.01-.03-.29-.2-.85-.46-.56-.27-1.39-.62-2.43-1.01-2.08-.79-5.03-1.71-8.38-2.35-3.35-.63-6.43-.86-8.65-.89-1.11-.01-2.01,0-2.64.05-.62.04-.96.08-.96.12Z"/>
      <path class="cls-3" d="M38.05,410.07c.16.08,1.45-3.62,4.67-7.05,3.18-3.47,6.78-5.03,6.68-5.18-.02-.06-.94.25-2.31,1.02-1.36.76-3.14,2.04-4.77,3.8-1.63,1.76-2.77,3.62-3.43,5.04-.67,1.42-.9,2.36-.85,2.38Z"/>
      <path class="cls-3" d="M67.25,326.87c-.11.12,1.98,2.19,4.26,4.99,2.29,2.8,3.9,5.26,4.04,5.18.12-.07-1.3-2.68-3.62-5.52-2.31-2.84-4.59-4.76-4.68-4.66Z"/>
      <path class="cls-3" d="M74.11,315.02c-.15-.02-.61,1.98-1.03,4.48-.43,2.5-.65,4.55-.51,4.57.15.02.61-1.98,1.03-4.48.43-2.5.65-4.55.51-4.57Z"/>
      <path class="cls-3" d="M95.34,352.19c-.13.07,1.36,3.2,3.32,6.99,1.97,3.79,3.67,6.81,3.8,6.75.13-.07-1.36-3.2-3.32-6.99-1.97-3.79-3.67-6.81-3.8-6.75Z"/>
      <path class="cls-3" d="M107.98,339.57c-.13-.07-1.39,2.2-2.82,5.06-1.42,2.86-2.47,5.23-2.34,5.3.13.07,1.39-2.2,2.82-5.06,1.42-2.86,2.47-5.23,2.34-5.3Z"/>
      <path class="cls-3" d="M126.55,382.72c.04.15,2.29-.28,5.1-.48,2.81-.21,5.1-.09,5.12-.25.02-.14-2.29-.5-5.15-.29-2.86.2-5.1.88-5.06,1.01Z"/>
    </g>
    <g>
      <path class="cls-3" d="M113.87,420.87l-6.32,33.23c-.42,2.2-2.34,3.79-4.58,3.79h-18.67c-2.28,0-4.22-1.65-4.6-3.9l-5.49-33.12h39.65Z"/>
      <polygon class="cls-8" points="111.82 431.67 76.11 431.67 74.22 420.87 113.87 420.87 111.82 431.67"/>
      <polygon class="cls-2" points="111.82 431.67 111.07 435.61 76.66 435.61 76.11 431.67 111.82 431.67"/>
    </g>
  </g>
  <g>
    <g>
      <path class="cls-3" d="M387.17,427.82l.79,19.36s-19.42,7.3-19.62,10.9l37.6-.18v-30.22s-18.76.14-18.76.14Z"/>
      <path class="cls-7" d="M399.58,445.5c.73.2,1.24,1.01,1.07,1.75-.17.74-.99,1.26-1.72,1.08-.73-.18-1.37-1.14-1.12-1.86.25-.71,1.25-1.27,1.92-.92"/>
      <path class="cls-8" d="M405.94,457.9l-.12-3.05-36,1.31s-1.67.74-1.48,1.91l37.6-.18Z"/>
      <path class="cls-6" d="M387.35,447c0,.18.93.26,1.83.85.92.56,1.39,1.36,1.56,1.28.17-.04-.11-1.13-1.22-1.82-1.1-.7-2.21-.48-2.17-.31Z"/>
      <path class="cls-6" d="M383.41,448.64c-.04.18.76.49,1.38,1.26.65.76.81,1.59.99,1.58.17.03.29-1.05-.5-1.99-.79-.95-1.87-1.03-1.87-.85Z"/>
      <path class="cls-6" d="M381.2,453.37c.17.04.42-.88-.06-1.88-.47-1.01-1.34-1.4-1.41-1.25-.1.15.46.69.84,1.52.4.82.45,1.59.64,1.61Z"/>
      <path class="cls-6" d="M387.66,442.56c.08.17.92-.09,1.96-.02,1.04.04,1.85.39,1.94.23.11-.13-.69-.81-1.91-.87-1.22-.07-2.08.52-1.99.66Z"/>
    </g>
    <g>
      <path class="cls-3" d="M444.99,432.33l4.88,22.93-1.37,19.25c-.1,1.39,1,2.57,2.39,2.57h0c.78,0,1.51-.37,1.96-1,2.88-4.04,13.39-18.93,12.94-20.59-.52-1.92-3.54-24.53-3.54-24.53l-17.26,1.37Z"/>
      <path class="cls-8" d="M450.89,477.08l14.61-23.15.18.98c.16.84.02,1.72-.41,2.46-1.14,2-4.4,7.44-12.36,18.7-.46.65-1.23,1.04-2.03,1.01h0Z"/>
      <g class="cls-1">
        <path class="cls-6" d="M459.36,447.39c-.5.51-.53,1.42-.04,1.94.49.52,1.41.55,1.92.05.51-.5.57-1.59.03-2.05-.54-.46-1.63-.44-2.01.16"/>
      </g>
      <path class="cls-6" d="M454.25,466.02c-.12.09-.87-1.02-2.36-1.41-1.48-.43-2.69.13-2.75,0-.03-.05.23-.29.75-.46.52-.18,1.31-.25,2.13-.03.82.23,1.46.7,1.82,1.12.36.42.46.76.4.79Z"/>
      <path class="cls-6" d="M453.19,469.41c-.09.12-.97-.49-2.23-.6-1.25-.14-2.24.27-2.3.13-.09-.11.93-.8,2.36-.65,1.43.14,2.28,1.03,2.17,1.12Z"/>
      <path class="cls-6" d="M456.56,461.49c-.09.13-1.44-.81-3.37-1.17-1.93-.38-3.53,0-3.57-.15-.06-.12,1.59-.76,3.66-.35,2.08.38,3.38,1.59,3.28,1.67Z"/>
      <path class="cls-6" d="M455.66,454.39c-.04.15-1.41-.14-3.08.11-1.67.23-2.9.9-2.98.77-.08-.1,1.11-1.02,2.91-1.28,1.79-.27,3.2.28,3.15.4Z"/>
      <path class="cls-6" d="M454.4,447.63c-.05.15-1.47-.38-3.2.03-1.74.37-2.81,1.46-2.91,1.34-.05-.04.15-.38.62-.78.47-.41,1.24-.85,2.17-1.06.94-.21,1.82-.14,2.42.03.6.17.92.39.9.44Z"/>
      <path class="cls-6" d="M450.99,446.36s-.14-.29-.2-.87c-.05-.57-.05-1.42.26-2.41.17-.48.32-1.07.91-1.5.29-.21.78-.24,1.11,0,.33.25.48.61.56.97.25,1.47-.74,3.12-2.34,3.64-1.62.49-3.29-.17-4.18-1.31-.21-.3-.38-.68-.27-1.11.1-.43.54-.67.88-.68.7-.03,1.21.29,1.67.5.91.49,1.53,1.07,1.91,1.49.38.43.53.71.5.73-.07.08-.8-1.02-2.58-1.9-.44-.19-.96-.45-1.46-.4-.24.02-.43.16-.48.37-.05.2.05.48.22.72.75.93,2.28,1.53,3.64,1.09,1.36-.42,2.22-1.88,2.03-3.06-.05-.28-.18-.55-.36-.69-.18-.14-.42-.14-.61-.01-.41.26-.62.81-.79,1.25-.65,1.87-.3,3.17-.41,3.16Z"/>
    </g>
    <g>
      <path class="cls-8" d="M373.33,270.37s-.16,10.19.53,23.37c.26,5.1,11,146.85,11,146.85l23.19.58-3.19-132.48,3.99.97s12.22,44.18,14.87,54.29c3.17,12.03,20.17,80.22,20.17,80.22l21.19.78-13.94-79.9-12.03-76.05-2.41-22.12-63.36,3.49Z"/>
      <path class="cls-3" d="M408.84,295.29s-.33.22-.98.52c-.65.29-1.61.73-2.9.93-.64.1-1.37.12-2.14-.04-.76-.15-1.56-.5-2.21-1.13-.64-.63-1.05-1.5-1.29-2.4-.25-.91-.38-1.85-.55-2.8-.64-3.84-1.06-7.34-1.28-9.88-.11-1.27-.19-2.3-.22-3.01-.03-.71-.03-1.11,0-1.11.03,0,.1.39.19,1.09.1.81.23,1.81.38,2.99.32,2.52.78,6.01,1.42,9.83.33,1.89.53,3.82,1.68,4.97,1.15,1.13,2.78,1.29,3.98,1.14,1.24-.15,2.2-.53,2.87-.77.67-.24,1.04-.38,1.05-.34Z"/>
      <path class="cls-3" d="M402.31,277.16s.15-.12.48-.13c.32-.02.81.09,1.29.45.46.35.93.98.93,1.82.02.85-.66,1.66-1.54,1.95-.86.31-1.9.09-2.42-.58-.52-.66-.53-1.44-.39-2,.15-.57.47-.96.73-1.15.26-.19.45-.22.46-.2.06.07-.66.37-.85,1.42-.08.49-.02,1.15.4,1.64.4.5,1.19.66,1.91.41.72-.25,1.24-.86,1.24-1.5.03-.64-.33-1.2-.7-1.53-.8-.71-1.55-.5-1.55-.59Z"/>
      <path class="cls-3" d="M438.81,287.63s-.28.07-.79.1c-.51.04-1.26.04-2.18-.03-1.83-.13-4.37-.64-6.94-1.79-2.57-1.17-4.63-2.73-5.94-4.02-.66-.64-1.16-1.2-1.46-1.61-.31-.41-.47-.64-.45-.66.07-.06.79.82,2.14,2.02,1.35,1.2,3.39,2.68,5.91,3.82,2.52,1.13,4.98,1.68,6.77,1.9,1.8.22,2.93.18,2.93.27Z"/>
      <path class="cls-3" d="M382.68,277.1s-.27.95-.92,2.33c-.64,1.37-1.66,3.17-2.99,4.88-1.33,1.7-2.69,2.98-3.73,3.76-1.03.79-1.72,1.14-1.73,1.09-.02-.07.62-.53,1.61-1.38.99-.85,2.31-2.14,3.61-3.82,1.3-1.68,2.33-3.41,3.02-4.72.69-1.31,1.07-2.17,1.12-2.13Z"/>
    </g>
    <g>
      <path class="cls-9" d="M395.99,130.59c.73-9.35,8.52-16.57,17.89-16.6h.93c10.05.56,15.19,9.41,14.35,19.44l-2.14,31.2-17.91,18.62-4.59-11.13.03-7.41s-9.66-1.48-9.81-11.13c-.07-4.66.57-14.28,1.24-22.98Z"/>
      <path class="cls-5" d="M404.48,164.69s6.17.35,12.65-3.74c0,0-2.96,6.96-12.6,6.12l-.05-2.38Z"/>
      <path class="cls-3" d="M398.58,138.64c-.02.73.57,1.35,1.33,1.39.76.04,1.39-.52,1.42-1.25.02-.73-.57-1.35-1.33-1.39-.76-.04-1.4.52-1.42,1.25Z"/>
      <path class="cls-3" d="M398.08,135.31c.17.18,1.21-.6,2.7-.6,1.48-.02,2.57.74,2.73.56.08-.08-.1-.41-.57-.75-.47-.34-1.26-.67-2.19-.67-.92,0-1.7.35-2.15.7-.46.35-.61.68-.52.76Z"/>
      <path class="cls-3" d="M412,139.01c-.02.73.57,1.35,1.33,1.39.76.04,1.39-.52,1.42-1.25.02-.73-.57-1.35-1.33-1.39-.76-.04-1.4.52-1.42,1.25Z"/>
      <path class="cls-3" d="M412.67,135.54c.17.18,1.22-.6,2.7-.6,1.48-.02,2.57.74,2.73.56.08-.08-.09-.4-.57-.75-.47-.34-1.26-.67-2.19-.67-.92,0-1.7.35-2.15.7-.45.35-.61.68-.52.76Z"/>
      <path class="cls-3" d="M407.32,146.57c0-.08-.92-.24-2.41-.43-.38-.04-.74-.11-.8-.37-.09-.27.07-.68.25-1.12.35-.92.72-1.88,1.11-2.89,1.55-4.11,2.66-7.5,2.5-7.56-.17-.06-1.55,3.22-3.1,7.34-.37,1.01-.73,1.98-1.07,2.91-.14.43-.39.92-.19,1.49.1.28.38.49.62.55.24.07.46.08.64.09,1.5.08,2.44.08,2.44,0Z"/>
      <path class="cls-3" d="M411.69,147.58c-.24-.01-.24,1.6-1.62,2.74-1.37,1.15-3.09.97-3.1,1.2-.02.1.38.31,1.11.33.71.02,1.75-.21,2.59-.91.84-.7,1.2-1.64,1.25-2.3.06-.67-.12-1.07-.23-1.06Z"/>
      <path class="cls-3" d="M412.28,129.73c.15.4,1.63.21,3.37.41,1.75.17,3.15.68,3.38.31.1-.17-.14-.55-.71-.94-.56-.39-1.46-.76-2.51-.87-1.05-.11-2,.06-2.64.32-.64.26-.96.58-.9.77Z"/>
      <path class="cls-3" d="M398.62,131.01c.26.34,1.28-.02,2.51-.04,1.23-.06,2.27.22,2.51-.13.1-.17-.06-.51-.52-.83-.45-.32-1.2-.57-2.04-.55-.84.03-1.58.34-2,.68-.43.35-.58.7-.46.86Z"/>
      <path class="cls-3" d="M392.42,122.14c.16-.88,1-1.65,1.89-1.54-.48-.15-.97-.32-1.35-.64-.38-.32-.64-.85-.49-1.33.23-.75,1.18-.93,1.93-1.17.98-.31,1.86-.93,2.47-1.75.88-1.18,1.2-2.7,1.95-3.97.98-1.64,2.73-2.81,4.63-3.07s3.9.38,5.29,1.69c1.43-1.56,3.63-2.37,5.73-2.11,2.1.26,4.04,1.58,5.05,3.44,2.53-1.14,5.67-.79,7.89.88,2.22,1.67,3.42,4.59,3.02,7.34l-5.91,3.86c-.15-1.86-2.27-3.27-4.04-2.7-1.8.58-2.9,2.71-4.78,2.91-1.46.15-2.74-.95-4.18-1.29-1.74-.41-3.54.33-5.07,1.25-1.53.92-2.98,2.05-4.69,2.54-2.01.57-4.19.18-6.15-.55-.84-.32-1.67-.71-2.31-1.34-.64-.63-1.05-1.54-.89-2.43Z"/>
      <path class="cls-3" d="M423.39,120.95l-27.54.63c.85-1.9,2.38-3.42,4.04-4.68,3.58-2.72,7.98-4.41,12.47-4.5,4.49-.08,13.64,5.38,16.89,8.48,2.6,2.48,2.59,4.62,2.59,4.62.42,3.57-1.58,7.63-2.37,11.14-.41,1.81-1.2,7.28-1.2,7.28h0c-1.52,0-2.08-1.21-1.85-2.71l.28-5.89s-5.16-3.66-2.72-10.38c.39-.53,1.23-2.99-.59-3.99Z"/>
      <path class="cls-3" d="M427.12,134.91c1.26-4.92,2.4-10.18.77-14.98.27-.02.54-.04.82-.06l.35.24c1.52-.56,3.39-.03,4.38,1.26.99,1.29,1.04,3.22.12,4.56,1.63-.12,3.23,1.2,3.43,2.82.13,1.12-.32,2.22-.79,3.24-.47,1.02-.98,2.09-.96,3.21.02,1.13.78,2.33,1.9,2.43-.47,1.17-1.85,1.89-3.08,1.6.41.94,1.1,1.76,1.96,2.33-1.76,1.27-4.23.93-6.21.03-1.17-.53-2.33-1.3-2.84-2.49-.56-1.31-.2-2.81.15-4.2Z"/>
      <path class="cls-9" d="M427.73,140.58c.16-.07,6.63-1.98,6.44,4.62s-6.78,5.05-6.79,4.86c0-.19.35-9.48.35-9.48Z"/>
      <path class="cls-5" d="M428.89,147.62s.11.08.3.18c.19.09.51.16.86.04.71-.24,1.32-1.33,1.39-2.52.03-.6-.07-1.18-.27-1.66-.19-.49-.49-.84-.84-.91-.35-.09-.6.11-.69.3-.09.18-.06.31-.09.33-.02.02-.14-.11-.08-.39.03-.13.11-.28.27-.41.16-.12.4-.18.64-.15.51.05.95.53,1.17,1.06.25.53.38,1.18.35,1.85-.08,1.33-.8,2.55-1.76,2.8-.47.11-.85-.04-1.05-.21-.2-.17-.23-.32-.21-.33Z"/>
      <path class="cls-8" d="M434.42,134.91s.18-.25.1-.77c-.08-.5-.46-1.22-1.28-1.68-.81-.46-1.92-.55-3.04-.64-1.11-.09-2.39-.37-3.05-1.44-.66-1.05-.72-2.35-.61-3.45.13-1.11.39-2.13.51-3,.3-1.76-.07-2.86-.13-2.83-.08.01.15,1.08-.23,2.77-.16.85-.46,1.83-.62,3.01-.13,1.15-.12,2.55.66,3.78.38.6.98,1.06,1.61,1.28.63.23,1.25.3,1.83.35,1.16.07,2.17.12,2.92.49.73.36,1.13.97,1.25,1.41.13.45.05.72.1.73Z"/>
      <path class="cls-8" d="M435.93,131.99s.14-.19.19-.6c.04-.4,0-1.03-.38-1.69-.18-.32-.45-.65-.81-.92-.35-.28-.83-.44-1.28-.55-.45-.12-.92-.22-1.27-.48-.34-.26-.51-.69-.53-1.19-.03-.5.03-1.03,0-1.56-.02-.52-.1-1.03-.21-1.49-.23-.94-.6-1.72-1.01-2.33-.42-.63-1.06-.92-1.49-.89-.44.02-.61.22-.59.23.02.04.22-.08.58-.03.37.04.85.31,1.19.89.34.58.66,1.35.85,2.23.09.44.16.91.17,1.4.02.49-.05,1.01,0,1.58.02.56.24,1.21.74,1.56.49.35,1.01.43,1.46.54.91.15,1.53.64,1.9,1.2.73,1.16.4,2.11.5,2.1Z"/>
      <path class="cls-8" d="M396.86,115.71s.51.35,1.36-.09c.42-.2.82-.61,1.21-1.1.39-.49.83-1.02,1.49-1.4,1.27-.77,3.35-1.02,4.98.19.83.57,1.58,1.37,2.55,2.04.48.33,1.04.61,1.67.72.63.11,1.29,0,1.87-.23,1.18-.46,2.09-1.22,3.11-1.62,1.01-.42,2.07-.63,3.08-.65,2.03-.05,3.81.66,5.04,1.58,1.25.91,1.99,1.96,2.44,2.7.43.75.59,1.22.64,1.2.02,0,0-.13-.08-.35-.07-.22-.19-.55-.38-.95-.4-.79-1.12-1.9-2.39-2.89-1.25-.99-3.12-1.79-5.27-1.76-1.07,0-2.19.21-3.27.65-1.09.43-2.03,1.19-3.1,1.6-.53.21-1.08.29-1.61.21-.53-.09-1.02-.33-1.47-.63-.9-.61-1.67-1.41-2.56-2.01-.88-.63-1.95-.91-2.91-.87-.97.03-1.84.33-2.53.76-.7.43-1.17,1.04-1.53,1.53-.37.5-.72.89-1.09,1.1-.75.45-1.27.21-1.26.26Z"/>
    </g>
    <g>
      <g>
        <g>
          <g>
            <path class="cls-9" d="M358.16,203.23l-34.17-27-4.87-5.11s-11.64-10.87-12.63-12.06c-1.14-1.37-2.07-1.15-2.55-.7-.74.71-.49,2.14.45,3.35.33.42,5.72,6.79,5.72,6.79,0,0-.74-.29-2.69-.7-1.95-.41-4.75.76-6.98,2.74-2.23,1.98-2.67,2.73-1.95,3.63.29.36.73.48,1.17.49.71.01,1.4-.27,1.94-.74,3.61-3.12,6.22-1.98,6.22-1.98l.64.67s-3.55.26-4.77,2.41c-.2.35-.3.69-.34,1.03-.97.82-1.48,2.15-1.29,3.4.19,1.31,1.13,2.47,2.37,2.94.59.22,1.36.25,1.75-.24.21-.26.26-.61.32-.93.03-.17.07-.35.13-.51l2.05,1.62s4.79,3.4,6.71,5.12l28.57,31.08c3.96,4.31,10.68,4.53,14.92.5h0c4.61-4.39,4.27-11.84-.73-15.79Z"/>
            <g>
              <path class="cls-9" d="M322.57,176.67c-.52.74-1.62.83-2.48.53-.86-.29-1.59-.87-2.43-1.22-2.5-1.06-5.54-.02-7.99-1.2-.34-.16-.71-.47-.62-.84.08-.34.49-.47.84-.53,2.94-.56,5.89-1.13,8.83-1.69"/>
              <path class="cls-5" d="M318.72,171.72s-.35,0-.97.08c-.62.09-1.52.23-2.62.42-1.15.2-2.45.43-3.87.68-.37.07-.74.14-1.12.2-.35.09-.85.06-1.23.55-.18.25-.13.64.03.85.16.22.36.36.56.47.4.19.81.35,1.25.44,1.74.39,3.39.17,4.83.32.72.06,1.39.19,1.98.43.59.24,1.1.57,1.61.82,1,.56,2.06.61,2.66.34.62-.27.76-.66.74-.66-.04-.04-.23.29-.8.47-.57.19-1.48.1-2.42-.47-.48-.26-.99-.62-1.62-.89-.63-.28-1.35-.43-2.1-.51-1.5-.17-3.15.02-4.76-.35-.4-.09-.78-.23-1.13-.39-.33-.17-.54-.45-.41-.6.12-.19.52-.27.9-.34.38-.08.75-.15,1.11-.22,1.41-.29,2.71-.56,3.85-.79,1.09-.23,1.98-.43,2.59-.58.61-.15.94-.25.94-.28Z"/>
            </g>
            <path class="cls-5" d="M308.59,172.57c-.04.05-.43-.59-1.45-.88-.5-.14-1.14-.13-1.79.12-.65.24-1.3.68-1.94,1.19-.65.51-1.28,1.02-1.94,1.35-.66.33-1.33.5-1.91.45-.59-.04-.99-.38-1.15-.65-.17-.27-.18-.45-.17-.45.03-.01.09.15.28.38.18.23.54.48,1.06.49.51.02,1.14-.16,1.75-.49.62-.32,1.22-.82,1.88-1.34.65-.52,1.33-.98,2.04-1.22.7-.25,1.42-.25,1.96-.06.54.18.9.48,1.11.71.21.23.28.39.27.4Z"/>
            <path class="cls-5" d="M304.04,161.24s.44.46,1.08,1.26c.72.88,1.58,1.94,2.52,3.1.96,1.15,1.84,2.19,2.57,3.06.66.78,1.07,1.27,1.04,1.3-.03.03-.5-.4-1.21-1.14-.71-.74-1.65-1.8-2.65-3.01-1-1.21-1.86-2.33-2.46-3.17-.6-.83-.93-1.38-.89-1.4Z"/>
            <path class="cls-5" d="M308.35,175.23s-.18.07-.49.17c-.3.1-.8.27-1.03.77-.11.24-.07.54.11.81.17.27.46.51.75.78.29.27.63.62.68,1.13.05.49-.17.99-.55,1.32-.39.34-.91.45-1.37.4-.46-.05-.88-.22-1.22-.5-.61-.55-1.02-1.14-1.34-1.66-.31-.52-.49-.99-.55-1.33-.06-.34-.01-.53,0-.53.03,0,.03.19.12.5.1.31.3.74.63,1.23.33.48.76,1.06,1.34,1.55.55.44,1.54.62,2.17.08.31-.27.48-.67.45-1.04-.03-.37-.29-.68-.57-.94-.28-.27-.58-.53-.77-.86-.21-.31-.25-.75-.09-1.05.32-.61.9-.74,1.21-.8.34-.06.52-.06.52-.04Z"/>
            <path class="cls-5" d="M306.4,180.33s.16.09.27.39c.1.29.14.79-.2,1.28-.33.47-1.01.82-1.77.74-.75-.07-1.49-.52-2.03-1.17-.54-.65-.83-1.44-.88-2.17-.05-.73.14-1.39.38-1.87.25-.49.54-.82.77-1.02.23-.2.38-.28.39-.26.05.04-.52.43-.94,1.39-.2.47-.35,1.08-.29,1.75.06.67.33,1.39.83,1.98.49.59,1.16,1,1.81,1.08.65.08,1.25-.19,1.55-.57.3-.39.32-.84.26-1.1-.06-.28-.17-.41-.14-.43Z"/>
            <path class="cls-5" d="M314.39,180.94s.17-.26.62-.5c.44-.24,1.17-.46,2.01-.3l-.16.24c-.2-.29-.39-.62-.57-.97-1-1.96-.99-3.79-.91-3.78.1-.02.23,1.74,1.2,3.63.17.34.36.66.54.95l.2.32-.36-.08c-.75-.16-1.43,0-1.86.17-.44.18-.68.36-.7.32Z"/>
            <path class="cls-5" d="M305.17,170.12c.09-.02.22.65-.14,1.36-.36.71-.97,1-1.01.92-.05-.08.41-.45.71-1.07.32-.62.34-1.2.44-1.21Z"/>
          </g>
          <g>
            <path class="cls-12" d="M356.61,221.19l19.73-13.67s-1.73,52.9-1.73,53.39c0,0-3.61,1.43-2.97,5.21l1.04,5.33c21.73,4.99,43.26,8.24,65.17.17l2.49-42.14,7.69-51.47-17.63-7.5-3.02-6.94-18.26,19.67-4.67-12.7.13-4.79-4.42,4.8-21.41,3.48-26.65,21.61-8.74-7.07-13.19,18.31,14.98,15.14c3.81,1.01,7.85.72,11.47-.84Z"/>
            <path class="cls-3" d="M406.43,180.84c.05.06-.79.26-1.28,1.43-.25.57-.38,1.3-.39,2.18-.04.86.02,1.9-.42,2.97l-.21.52-.22-.52c-.59-1.37-1-2.94-1.4-4.59-.75-3.24-1.24-6.21-1.56-8.36-.32-2.15-.44-3.49-.37-3.5.07-.01.33,1.31.74,3.44.41,2.13.95,5.08,1.7,8.3.39,1.63.79,3.2,1.33,4.51h-.44c.4-.92.39-1.92.46-2.79.04-.88.22-1.69.53-2.28.3-.6.71-.97,1.02-1.14.32-.17.52-.18.52-.16Z"/>
            <path class="cls-3" d="M429.38,172.93s-.19.33-.6.87c-.42.54-1.03,1.3-1.8,2.24-1.53,1.88-3.68,4.45-6.08,7.28-1.37,1.6-2.66,3.11-3.82,4.45l-.3.34-.11-.44c-.54-2.17-.98-4.01-1.28-5.3-.12-.65-.48-1.02-.83-1.02-.34-.03-.46.16-.48.14-.03,0,.07-.26.48-.29.19,0,.45.06.66.27.21.2.34.5.44.83.38,1.28.88,3.09,1.46,5.26l-.4-.09c1.14-1.36,2.42-2.88,3.78-4.49,2.4-2.82,4.59-5.36,6.2-7.18.8-.91,1.46-1.64,1.92-2.14.46-.5.73-.76.76-.74Z"/>
            <path class="cls-3" d="M403.01,255.74s-.03-.23-.05-.67c-.01-.49-.03-1.13-.04-1.92-.03-1.67-.03-4.09,0-7.08.07-5.98.35-14.23,1.03-23.33.68-9.1,1.63-17.3,2.45-23.22.41-2.96.77-5.35,1.05-7,.14-.78.24-1.41.33-1.9.08-.43.13-.66.15-.66s0,.23-.05.67c-.06.49-.14,1.12-.23,1.91-.22,1.72-.52,4.1-.88,7.02-.73,5.93-1.61,14.13-2.3,23.22-.68,9.08-1.02,17.33-1.18,23.3-.07,2.94-.13,5.34-.17,7.07-.02.79-.04,1.43-.05,1.92-.02.44-.04.67-.05.67Z"/>
            <path class="cls-3" d="M397.96,267.88c-.14.03-.54-1.97-.46-4.45.07-2.47.38-4.45.52-4.44.16.01.08,2.01,0,4.45-.08,2.44.08,4.41-.06,4.44Z"/>
            <path class="cls-3" d="M423.36,253.33s-.56.25-1.6.6c-1.04.36-2.55.84-4.44,1.38-3.77,1.1-9.04,2.42-14.94,3.47-5.9,1.05-11.3,1.62-15.22,1.89-1.96.13-3.54.21-4.64.23-1.1.02-1.7.02-1.71-.02s.6-.1,1.69-.19c1.18-.1,2.74-.23,4.62-.39,3.9-.36,9.27-.99,15.16-2.03,5.88-1.05,11.14-2.31,14.93-3.31,1.82-.5,3.33-.91,4.48-1.22,1.06-.3,1.64-.44,1.66-.41Z"/>
            <path class="cls-3" d="M376.28,219.65c-.14,0-.23-7.36-.2-16.43.03-9.08.17-16.43.32-16.43.14,0,.23,7.36.2,16.43-.03,9.07-.17,16.43-.32,16.43Z"/>
          </g>
        </g>
        <g class="cls-4">
          <path d="M410.81,184.94c1.1.03,2.2.68,2.4,1.76.2,1.08.05,2.21.33,3.27.28,1.06,1.24,2.09,2.32,1.87.65-.13,1.13-.68,1.53-1.21,2.1-2.71,3.8-6.09,5.04-9.29-.03.08-5.54,6.36-5.54,6.36-.17-1.58-.67-3.15-1.24-4.63-.19-.48-.4-1.29-.86-1.51-.75-.34-1.75.76-2.24,1.42-.5.66-1.59,1.81-1.74,1.87"/>
        </g>
        <g class="cls-4">
          <path d="M401.78,179.23c.18,3.45.72,7.08,2.02,10.28.13.33.28.66.54.9.26.23.68.34.97.14.22-.14.9-1.88.99-2.13.51-1.43,2.59-1.56,2.59-1.56,0,0-.82-3.67-1.35-4.76-.24-.49-.75-.92-1.29-.83-.64.11-1.34.98-1.42,1.63-.31,2.57-.27,3.74-.65,4.64-.97-2.73-1.76-6.02-2.4-8.41"/>
        </g>
        <g class="cls-4">
          <path d="M417.12,254.99c1.03-.55,1.16-2.13.48-3.09-.68-.95-1.96-1.33-3.12-1.19-1.16.15-2.22.74-3.16,1.43-.95.68-1.82,1.47-2.82,2.08-2.45,1.51-5.44,1.85-8.31,1.9-2.88.05-5.78-.16-8.61.38-2.82.55-5.65,2-7.01,4.54,0,0,24.58-1.79,32.55-6.05Z"/>
        </g>
      </g>
      <path class="cls-12" d="M448.03,178.02s7.44,5.3,9.24,10.1c1.8,4.81,8.45,37.77,9.53,43.4,1.36,7.08,1.41,15.83-8.78,19.16-3.79,1.24-27.01-.66-27.01-.66l.75-16.49,12.54.48s-.76-1.12,1.05-2.45l-3.98-21.45s1.47-22.78,1.65-23.32,5-8.78,5-8.78Z"/>
      <path class="cls-3" d="M448.4,178.57c.08.15-3.12,1.1-5.83,3.99-2.76,2.85-3.56,6.08-3.71,6.01-.06-.01.06-.83.54-2.06.48-1.23,1.4-2.84,2.8-4.31,1.4-1.46,2.97-2.46,4.18-3,1.21-.54,2.01-.69,2.03-.64Z"/>
      <path class="cls-3" d="M452.46,237.33c-.09.02-.25-.54-.75-1.32-.49-.77-1.36-1.73-2.55-2.49-1.18-.76-2.41-1.18-3.31-1.31-.91-.14-1.49-.03-1.51-.12-.02-.05.56-.3,1.54-.25.98.03,2.31.43,3.56,1.23,1.25.81,2.14,1.87,2.58,2.74.45.87.48,1.49.43,1.5Z"/>
      <path class="cls-3" d="M438.96,197.06s.16.47.35,1.32c.2.96.46,2.19.76,3.65.62,3.09,1.44,7.36,2.32,12.08.88,4.72,1.64,9.01,2.17,12.11.24,1.48.44,2.71.6,3.68.13.87.18,1.36.15,1.36-.04,0-.16-.47-.35-1.33-.2-.96-.46-2.19-.76-3.65-.62-3.09-1.44-7.36-2.32-12.08-.87-4.72-1.64-9-2.16-12.11-.24-1.48-.44-2.71-.6-3.68-.13-.87-.18-1.36-.15-1.36Z"/>
      <path class="cls-3" d="M431.01,250.03s-.04-.45-.04-1.27c.02-.92.05-2.09.08-3.5.09-2.96.25-7.09.45-11.73v-.26s.27,0,.27,0c.66.03,1.36.05,2.07.08,3.86.17,7.44.32,10.45.45h.07s.05.05.05.05c1.95,1.59,2.95,3.49,3.43,4.82.24.67.36,1.22.43,1.6.06.38.07.58.05.58-.06.01-.17-.79-.71-2.09-.53-1.28-1.56-3.08-3.47-4.58l.12.05c-3.01-.1-6.6-.23-10.46-.36-.71-.03-1.41-.06-2.07-.08l.27-.25c-.22,4.65-.44,8.77-.62,11.73-.1,1.41-.18,2.57-.24,3.49-.07.82-.12,1.27-.15,1.27Z"/>
    </g>
    <g>
      <g>
        <path class="cls-8" d="M412.69,230.06l-9.71-19.78c-.66-1.34-2.03-2.19-3.52-2.19h-24.39c-.9,0-1.48.97-1.06,1.76l16.51,30.82c.46.86,1.36,1.4,2.34,1.4h25.29l-5.47-12.01Z"/>
        <path class="cls-3" d="M374.18,210s.17.03.49.04c.37,0,.83.01,1.4.02,1.28,0,3.02,0,5.14,0,4.39-.04,10.35-.09,16.93-.15.81.03,1.6.16,2.25.54.66.37,1.12,1,1.5,1.66.71,1.35,1.31,2.76,1.92,4.05,1.21,2.58,2.31,4.92,3.24,6.9.92,1.91,1.67,3.48,2.22,4.63.25.51.46.92.62,1.25.15.28.23.43.25.42.01,0-.04-.17-.16-.46-.14-.34-.33-.77-.55-1.29-.52-1.17-1.22-2.76-2.09-4.69-.9-1.99-1.97-4.34-3.15-6.94-.61-1.3-1.18-2.67-1.91-4.09-.39-.69-.9-1.39-1.66-1.83-.75-.44-1.62-.57-2.46-.61-6.64.04-12.61.19-16.95.28-2.12.06-3.86.11-5.13.14-.56.03-1.03.05-1.4.06-.32.02-.49.04-.49.05Z"/>
        <path class="cls-6" d="M389.21,214.33c-.59.31-.61.79-.37,1.22.25.43.81.62,1.29.49.32-.09.61-.33.67-.65.06-.32-.23-1.02-.75-1.12,0,0-.56-.09-.85.06Z"/>
      </g>
      <path class="cls-9" d="M431.49,234.19l-6.07-.59s-2.74-3.12-3.83-4.06c-1.08-.95-7.26-3.97-7.26-3.97,0,0-3.21-3.41-3.64-3.36-.42.05-1.74.45-1.17,2.15.55,1.63,1.46,3.81,2.12,4.84l-12.21,1.74c-.77.11-1.48.53-1.88,1.19-.27.45-.35.91.26,1.13,1.35.48,6.7,1.13,6.7,1.13l-2.39-.32s-.23,2.28,1.36,3.16c1.59.87,1.71,1.06,1.71,1.06,0,0,.32,2.09,1.06,2.86.74.77,8.06,3.49,8.06,3.49,0,0,4.56.77,6.78.4l9.9,1.5.48-12.36Z"/>
      <path class="cls-5" d="M410.48,229.39c.02.12,1.57,0,3.48-.03,1.92-.02,3.49-.11,3.49-.25,0-.11-1.56-.21-3.49-.19-1.94.03-3.49.35-3.48.46Z"/>
      <path class="cls-5" d="M412.77,234.62c.02-.14-2.28-.48-5.13-.46-1.42,0-2.7.02-3.63.02-.93.01-1.5,0-1.51.07,0,.06.56.18,1.5.24.93.07,2.22.09,3.64.1,2.84-.01,5.11.13,5.13.03Z"/>
      <path class="cls-5" d="M413.25,238.63c-.02-.13-1.81.03-4.01-.08-2.2-.1-3.97-.44-3.99-.32-.03.11,1.72.65,3.97.75,2.25.12,4.05-.24,4.03-.35Z"/>
      <path class="cls-5" d="M413.05,243.2c.12,0,.24-.5.27-1.12.03-.62-.05-1.14-.17-1.14-.12,0-.24.5-.27,1.12-.03.62.05,1.14.17,1.14Z"/>
      <path class="cls-5" d="M413.5,237.7c.12-.02.14-.43.3-.88.15-.45.39-.78.31-.87-.07-.1-.52.16-.72.73-.2.57,0,1.05.11,1.02Z"/>
      <path class="cls-5" d="M414.25,232.15c.12,0,.22-.27.33-.58.11-.31.21-.58.11-.66-.09-.08-.38.12-.52.51-.14.39-.04.73.08.73Z"/>
    </g>
  </g>
</svg>