<?xml version="1.0" encoding="UTF-8"?>
<svg xmlns="http://www.w3.org/2000/svg" version="1.1" viewBox="0 0 800 800">
  <defs>
    <style>
      .cls-1 {
        fill: red;
      }
    </style>
  </defs>
  <!-- Generator: Adobe Illustrator 28.7.1, SVG Export Plug-In . SVG Version: 1.2.0 Build 142)  -->
  <g>
    <g id="Capa_1">
      <g>
        <path class="cls-1" d="M171.9,761.4c.9,21.6,18.6,38.6,40.2,38.6h375.9c21.6,0,39.3-17,40.2-38.6l26.8-566.6H145l26.8,566.6ZM485,335.5c0-9,7.3-16.4,16.4-16.4h26.2c9,0,16.4,7.3,16.4,16.4v323.7c0,9-7.3,16.4-16.4,16.4h-26.2c-9,0-16.4-7.3-16.4-16.4v-323.7ZM370.6,335.5c0-9,7.3-16.4,16.4-16.4h26.2c9,0,16.4,7.3,16.4,16.4v323.7c0,9-7.3,16.4-16.4,16.4h-26.2c-9,0-16.4-7.3-16.4-16.4v-323.7h0ZM256.1,335.5c0-9,7.3-16.4,16.4-16.4h26.2c9,0,16.4,7.3,16.4,16.4v323.7c0,9-7.3,16.4-16.4,16.4h-26.2c-9,0-16.4-7.3-16.4-16.4v-323.7Z"/>
        <path class="cls-1" d="M672.9,41.2h-173.4V8.4c0-4.7-3.8-8.4-8.4-8.4h-182.1c-4.7,0-8.4,3.8-8.4,8.4v32.8H127.1c-14,0-25.3,11.3-25.3,25.3v79.4h596.3v-79.4c0-14-11.3-25.3-25.3-25.3Z"/>
      </g>
    </g>
  </g>
</svg>