<?xml version="1.0" encoding="UTF-8"?>
<svg xmlns="http://www.w3.org/2000/svg" version="1.1" viewBox="0 0 800 800">
  <defs>
    <style>
      .cls-1 {
        fill: #263238;
        fill-rule: evenodd;
      }
    </style>
  </defs>
  <!-- Generator: Adobe Illustrator 28.7.1, SVG Export Plug-In . SVG Version: 1.2.0 Build 142)  -->
  <g>
    <g id="Layer_1">
      <path class="cls-1" d="M133,561.8l-43.8,116.8c-4.8,12.9,1.7,27.3,14.7,32.2,5.7,2.1,11.9,2.1,17.5,0l116.8-43.8c13.4-5,25.5-12.8,35.6-22.9l338.2-338.2s-11.8-35.4-47.1-70.7c-35.3-35.3-70.7-47.1-70.7-47.1l-338.2,338.2c-10.1,10.1-17.9,22.2-22.9,35.6ZM541.3,140.8l46.1-46.1c8.3-8.3,19.3-13.5,30.8-11.6,16.2,2.7,41.1,10.7,64.5,34.2,23.4,23.4,31.5,48.2,34.2,64.5,1.9,11.5-3.3,22.6-11.6,30.8l-46.1,46.1s-11.8-35.3-47.1-70.7c-35.3-35.4-70.7-47.2-70.7-47.2h0Z"/>
    </g>
  </g>
</svg>